<mxfile host="www.draw.io" modified="2019-11-20T04:39:59.653Z" agent="Mozilla/5.0 (Windows NT 10.0; Win64; x64) AppleWebKit/537.36 (KHTML, like Gecko) Chrome/78.0.3904.108 Safari/537.36" etag="9DO5Flx-GF68toTRD0B3" version="12.2.7" type="github" pages="2">
  <diagram id="Xh9TvfCY4R1_nHsfRUxj" name="攻击验证">
    <mxGraphModel dx="1024" dy="534" grid="1" gridSize="10" guides="1" tooltips="1" connect="1" arrows="1" fold="1" page="1" pageScale="1" pageWidth="827" pageHeight="1169" math="0" shadow="0">
      <root>
        <mxCell id="0"/>
        <mxCell id="1" parent="0"/>
        <mxCell id="voBH_xsh9rp7hN0Ajwhn-1" value="&lt;font style=&quot;font-size:15px;font-family:Microsoft YaHei;color:#000000;direction:ltr;letter-spacing:0px;line-height:120%;opacity:1&quot;&gt;节点设备&lt;br/&gt;&lt;/font&gt;" style="verticalAlign=top;align=center;vsdxID=1;fillColor=#deebf6;gradientColor=none;shape=stencil(nZBLDoAgDERP0z3SIyjew0SURgSD+Lu9kMZoXLhwN9O+tukAlrNpJg1SzDH4QW/URgNYgZTkjA4UkwJUgGXng+6DX1zLfmoymdXo17xh5zmRJ6Q42BWCfc2oJfdAr+Yv+AP9Cb7OJ3H/2JG1HNGz/84klThPVCc=);dashed=1;strokeColor=#262626;labelBackgroundColor=none;rounded=0;html=1;whiteSpace=wrap;" vertex="1" parent="1">
          <mxGeometry x="4" y="295" width="516" height="286" as="geometry"/>
        </mxCell>
        <mxCell id="voBH_xsh9rp7hN0Ajwhn-2" value="&lt;font style=&quot;font-size:15px;font-family:Microsoft YaHei;color:#000000;direction:ltr;letter-spacing:0px;line-height:120%;opacity:1&quot;&gt;CPU&lt;br/&gt;&lt;/font&gt;" style="verticalAlign=middle;align=center;vsdxID=2;fillColor=#ffffff;gradientColor=none;shape=stencil(nZBLDoAgDERP0z3SIyjew0SURgSD+Lu9kMZoXLhwN9O+tukAlrNpJg1SzDH4QW/URgNYgZTkjA4UkwJUgGXng+6DX1zLfmoymdXo17xh5zmRJ6Q42BWCfc2oJfdAr+Yv+AP9Cb7OJ3H/2JG1HNGz/84klThPVCc=);strokeColor=#262626;labelBackgroundColor=none;rounded=0;html=1;whiteSpace=wrap;" vertex="1" parent="1">
          <mxGeometry x="28" y="331" width="103" height="34" as="geometry"/>
        </mxCell>
        <mxCell id="voBH_xsh9rp7hN0Ajwhn-3" value="&lt;font style=&quot;font-size:15px;font-family:Microsoft YaHei;color:#000000;direction:ltr;letter-spacing:0px;line-height:120%;opacity:1&quot;&gt;内存&lt;br/&gt;&lt;/font&gt;" style="verticalAlign=middle;align=center;vsdxID=3;fillColor=#ffffff;gradientColor=none;shape=stencil(nZBLDoAgDERP0z3SIyjew0SURgSD+Lu9kMZoXLhwN9O+tukAlrNpJg1SzDH4QW/URgNYgZTkjA4UkwJUgGXng+6DX1zLfmoymdXo17xh5zmRJ6Q42BWCfc2oJfdAr+Yv+AP9Cb7OJ3H/2JG1HNGz/84klThPVCc=);strokeColor=#262626;labelBackgroundColor=none;rounded=0;html=1;whiteSpace=wrap;" vertex="1" parent="1">
          <mxGeometry x="148" y="331" width="103" height="34" as="geometry"/>
        </mxCell>
        <mxCell id="voBH_xsh9rp7hN0Ajwhn-4" value="&lt;font style=&quot;font-size:15px;font-family:Microsoft YaHei;color:#000000;direction:ltr;letter-spacing:0px;line-height:120%;opacity:1&quot;&gt;存储&lt;br/&gt;&lt;/font&gt;" style="verticalAlign=middle;align=center;vsdxID=4;fillColor=#ffffff;gradientColor=none;shape=stencil(nZBLDoAgDERP0z3SIyjew0SURgSD+Lu9kMZoXLhwN9O+tukAlrNpJg1SzDH4QW/URgNYgZTkjA4UkwJUgGXng+6DX1zLfmoymdXo17xh5zmRJ6Q42BWCfc2oJfdAr+Yv+AP9Cb7OJ3H/2JG1HNGz/84klThPVCc=);strokeColor=#262626;labelBackgroundColor=none;rounded=0;html=1;whiteSpace=wrap;" vertex="1" parent="1">
          <mxGeometry x="268" y="331" width="103" height="34" as="geometry"/>
        </mxCell>
        <mxCell id="voBH_xsh9rp7hN0Ajwhn-5" value="&lt;font style=&quot;font-size:15px;font-family:Microsoft YaHei;color:#000000;direction:ltr;letter-spacing:0px;line-height:120%;opacity:1&quot;&gt;网络&lt;br/&gt;&lt;/font&gt;" style="verticalAlign=middle;align=center;vsdxID=5;fillColor=#ffffff;gradientColor=none;shape=stencil(nZBLDoAgDERP0z3SIyjew0SURgSD+Lu9kMZoXLhwN9O+tukAlrNpJg1SzDH4QW/URgNYgZTkjA4UkwJUgGXng+6DX1zLfmoymdXo17xh5zmRJ6Q42BWCfc2oJfdAr+Yv+AP9Cb7OJ3H/2JG1HNGz/84klThPVCc=);strokeColor=#262626;labelBackgroundColor=none;rounded=0;html=1;whiteSpace=wrap;" vertex="1" parent="1">
          <mxGeometry x="388" y="331" width="103" height="34" as="geometry"/>
        </mxCell>
        <mxCell id="voBH_xsh9rp7hN0Ajwhn-6" value="&lt;font style=&quot;font-size:16px;font-family:SimSun;color:#000000;direction:ltr;letter-spacing:0px;line-height:120%;opacity:1&quot;&gt;设备资源使用信息&lt;br/&gt;&lt;/font&gt;" style="verticalAlign=middle;align=center;vsdxID=6;fillColor=#ffffff;gradientColor=none;shape=stencil(vZPBcoMgEIafhqMMLjORnNP0PZgGlQkVZ6WNfftgVtsooT01t2X3Z5dv9WfyMLS6NwzEENCfzcWeQsvkCwOwXWvQhhgxeWTyUHs0DfqP7kTnXk/KKXr3n1OHke7tFYdqugXiizKlELfzK8k1vsUazvKSq5LUuMgVF4pS47rB0lABr2BWFHq0Q4E+6GB9R/VZ7TQ2pojjitrpZlUaLsb0SXp+oLOdyQ8vKw7qN57dBme3xUk3JJ4Gwyv5YHKGZNFigr70y63mCSi5XyLHohIWBSuWZDffX/7/Yf40TQx+DFdb58iv9/WtQWOKzC2PVw==);strokeColor=#262626;labelBackgroundColor=none;rounded=0;html=1;whiteSpace=wrap;" vertex="1" parent="1">
          <mxGeometry x="28" y="389" width="463" height="46" as="geometry"/>
        </mxCell>
        <mxCell id="voBH_xsh9rp7hN0Ajwhn-7" style="vsdxID=8;edgeStyle=none;startArrow=none;endArrow=classic;startSize=5;endSize=5;spacingTop=0;spacingBottom=0;spacingLeft=0;spacingRight=0;verticalAlign=middle;html=1;labelBackgroundColor=#ffffff;rounded=0;" edge="1" parent="1">
          <mxGeometry relative="1" as="geometry">
            <Array as="points"/>
            <mxPoint x="92" y="365" as="sourcePoint"/>
            <mxPoint x="124" y="389" as="targetPoint"/>
          </mxGeometry>
        </mxCell>
        <mxCell id="voBH_xsh9rp7hN0Ajwhn-8" value="&lt;font style=&quot;font-size:15px;font-family:Microsoft YaHei;color:#000000;direction:ltr;letter-spacing:0px;line-height:120%;opacity:1&quot;&gt;系统服务&lt;br/&gt;&lt;/font&gt;" style="verticalAlign=middle;align=center;vsdxID=12;fillColor=#ffffff;gradientColor=none;shape=stencil(nZBLDoAgDERP0z3SIyjew0SURgSD+Lu9kMZoXLhwN9O+tukAlrNpJg1SzDH4QW/URgNYgZTkjA4UkwJUgGXng+6DX1zLfmoymdXo17xh5zmRJ6Q42BWCfc2oJfdAr+Yv+AP9Cb7OJ3H/2JG1HNGz/84klThPVCc=);strokeColor=#262626;labelBackgroundColor=none;rounded=0;html=1;whiteSpace=wrap;" vertex="1" parent="1">
          <mxGeometry x="28" y="453" width="103" height="34" as="geometry"/>
        </mxCell>
        <mxCell id="voBH_xsh9rp7hN0Ajwhn-9" value="&lt;font style=&quot;font-size:15px;font-family:Microsoft YaHei;color:#000000;direction:ltr;letter-spacing:0px;line-height:120%;opacity:1&quot;&gt;中间件&lt;br/&gt;&lt;/font&gt;" style="verticalAlign=middle;align=center;vsdxID=13;fillColor=#ffffff;gradientColor=none;shape=stencil(nZBLDoAgDERP0z3SIyjew0SURgSD+Lu9kMZoXLhwN9O+tukAlrNpJg1SzDH4QW/URgNYgZTkjA4UkwJUgGXng+6DX1zLfmoymdXo17xh5zmRJ6Q42BWCfc2oJfdAr+Yv+AP9Cb7OJ3H/2JG1HNGz/84klThPVCc=);strokeColor=#262626;labelBackgroundColor=none;rounded=0;html=1;whiteSpace=wrap;" vertex="1" parent="1">
          <mxGeometry x="148" y="453" width="103" height="34" as="geometry"/>
        </mxCell>
        <mxCell id="voBH_xsh9rp7hN0Ajwhn-10" value="&lt;font style=&quot;font-size:15px;font-family:Microsoft YaHei;color:#000000;direction:ltr;letter-spacing:0px;line-height:120%;opacity:1&quot;&gt;数据库&lt;br/&gt;&lt;/font&gt;" style="verticalAlign=middle;align=center;vsdxID=14;fillColor=#ffffff;gradientColor=none;shape=stencil(nZBLDoAgDERP0z3SIyjew0SURgSD+Lu9kMZoXLhwN9O+tukAlrNpJg1SzDH4QW/URgNYgZTkjA4UkwJUgGXng+6DX1zLfmoymdXo17xh5zmRJ6Q42BWCfc2oJfdAr+Yv+AP9Cb7OJ3H/2JG1HNGz/84klThPVCc=);strokeColor=#262626;labelBackgroundColor=none;rounded=0;html=1;whiteSpace=wrap;" vertex="1" parent="1">
          <mxGeometry x="268" y="453" width="103" height="34" as="geometry"/>
        </mxCell>
        <mxCell id="voBH_xsh9rp7hN0Ajwhn-11" value="&lt;font style=&quot;font-size:15px;font-family:Microsoft YaHei;color:#000000;direction:ltr;letter-spacing:0px;line-height:120%;opacity:1&quot;&gt;网络协议&lt;br/&gt;&lt;/font&gt;" style="verticalAlign=middle;align=center;vsdxID=15;fillColor=#ffffff;gradientColor=none;shape=stencil(nZBLDoAgDERP0z3SIyjew0SURgSD+Lu9kMZoXLhwN9O+tukAlrNpJg1SzDH4QW/URgNYgZTkjA4UkwJUgGXng+6DX1zLfmoymdXo17xh5zmRJ6Q42BWCfc2oJfdAr+Yv+AP9Cb7OJ3H/2JG1HNGz/84klThPVCc=);strokeColor=#262626;labelBackgroundColor=none;rounded=0;html=1;whiteSpace=wrap;" vertex="1" parent="1">
          <mxGeometry x="388" y="453" width="103" height="34" as="geometry"/>
        </mxCell>
        <mxCell id="voBH_xsh9rp7hN0Ajwhn-12" style="vsdxID=17;edgeStyle=none;startArrow=none;endArrow=classic;startSize=5;endSize=5;spacingTop=0;spacingBottom=0;spacingLeft=0;spacingRight=0;verticalAlign=middle;html=1;labelBackgroundColor=#ffffff;rounded=0;" edge="1" parent="1">
          <mxGeometry relative="1" as="geometry">
            <Array as="points"/>
            <mxPoint x="92" y="487" as="sourcePoint"/>
            <mxPoint x="124" y="511" as="targetPoint"/>
          </mxGeometry>
        </mxCell>
        <mxCell id="voBH_xsh9rp7hN0Ajwhn-13" value="&lt;font style=&quot;font-size:16px;font-family:SimSun;color:#000000;direction:ltr;letter-spacing:0px;line-height:120%;opacity:1&quot;&gt;设备服务配置信息&lt;br/&gt;&lt;/font&gt;" style="verticalAlign=middle;align=center;vsdxID=16;fillColor=#ffffff;gradientColor=none;shape=stencil(vZPBcoMgEIafhqMMLjORnNP0PZgGlQkVZ6WNfftgVtsooT01t2X3Z5dv9WfyMLS6NwzEENCfzcWeQsvkCwOwXWvQhhgxeWTyUHs0DfqP7kTnXk/KKXr3n1OHke7tFYdqugXiizKlELfzK8k1vsUazvKSq5LUuMgVF4pS47rB0lABr2BWFHq0Q4E+6GB9R/VZ7TQ2pojjitrpZlUaLsb0SXp+oLOdyQ8vKw7qN57dBme3xUk3JJ4Gwyv5YHKGZNFigr70y63mCSi5XyLHohIWBSuWZDffX/7/Yf40TQx+DFdb58iv9/WtQWOKzC2PVw==);strokeColor=#262626;labelBackgroundColor=none;rounded=0;html=1;whiteSpace=wrap;" vertex="1" parent="1">
          <mxGeometry x="28" y="511" width="463" height="46" as="geometry"/>
        </mxCell>
        <mxCell id="voBH_xsh9rp7hN0Ajwhn-14" value="&lt;font style=&quot;font-size:15px;font-family:Microsoft YaHei;color:#000000;direction:ltr;letter-spacing:0px;line-height:120%;opacity:1&quot;&gt;漏洞库&lt;br/&gt;&lt;/font&gt;" style="verticalAlign=top;align=center;vsdxID=21;fillColor=#deebf6;gradientColor=none;shape=stencil(nZBLDoAgDERP0z3SIyjew0SURgSD+Lu9kMZoXLhwN9O+tukAlrNpJg1SzDH4QW/URgNYgZTkjA4UkwJUgGXng+6DX1zLfmoymdXo17xh5zmRJ6Q42BWCfc2oJfdAr+Yv+AP9Cb7OJ3H/2JG1HNGz/84klThPVCc=);dashed=1;strokeColor=#262626;labelBackgroundColor=none;rounded=0;html=1;whiteSpace=wrap;" vertex="1" parent="1">
          <mxGeometry x="4" y="607" width="516" height="286" as="geometry"/>
        </mxCell>
        <mxCell id="voBH_xsh9rp7hN0Ajwhn-15" value="&lt;font style=&quot;font-size:15px;font-family:Microsoft YaHei;color:#000000;direction:ltr;letter-spacing:0px;line-height:120%;opacity:1&quot;&gt;C/C++&lt;br/&gt;&lt;/font&gt;" style="verticalAlign=middle;align=center;vsdxID=22;fillColor=#ffffff;gradientColor=none;shape=stencil(nZBLDoAgDERP0z3SIyjew0SURgSD+Lu9kMZoXLhwN9O+tukAlrNpJg1SzDH4QW/URgNYgZTkjA4UkwJUgGXng+6DX1zLfmoymdXo17xh5zmRJ6Q42BWCfc2oJfdAr+Yv+AP9Cb7OJ3H/2JG1HNGz/84klThPVCc=);strokeColor=#262626;labelBackgroundColor=none;rounded=0;html=1;whiteSpace=wrap;" vertex="1" parent="1">
          <mxGeometry x="28" y="831" width="103" height="34" as="geometry"/>
        </mxCell>
        <mxCell id="voBH_xsh9rp7hN0Ajwhn-16" value="&lt;font style=&quot;font-size:15px;font-family:Microsoft YaHei;color:#000000;direction:ltr;letter-spacing:0px;line-height:120%;opacity:1&quot;&gt;Python&lt;br/&gt;&lt;/font&gt;" style="verticalAlign=middle;align=center;vsdxID=23;fillColor=#ffffff;gradientColor=none;shape=stencil(nZBLDoAgDERP0z3SIyjew0SURgSD+Lu9kMZoXLhwN9O+tukAlrNpJg1SzDH4QW/URgNYgZTkjA4UkwJUgGXng+6DX1zLfmoymdXo17xh5zmRJ6Q42BWCfc2oJfdAr+Yv+AP9Cb7OJ3H/2JG1HNGz/84klThPVCc=);strokeColor=#262626;labelBackgroundColor=none;rounded=0;html=1;whiteSpace=wrap;" vertex="1" parent="1">
          <mxGeometry x="148" y="831" width="103" height="34" as="geometry"/>
        </mxCell>
        <mxCell id="voBH_xsh9rp7hN0Ajwhn-17" value="&lt;font style=&quot;font-size:15px;font-family:Microsoft YaHei;color:#000000;direction:ltr;letter-spacing:0px;line-height:120%;opacity:1&quot;&gt;Java&lt;br/&gt;&lt;/font&gt;" style="verticalAlign=middle;align=center;vsdxID=24;fillColor=#ffffff;gradientColor=none;shape=stencil(nZBLDoAgDERP0z3SIyjew0SURgSD+Lu9kMZoXLhwN9O+tukAlrNpJg1SzDH4QW/URgNYgZTkjA4UkwJUgGXng+6DX1zLfmoymdXo17xh5zmRJ6Q42BWCfc2oJfdAr+Yv+AP9Cb7OJ3H/2JG1HNGz/84klThPVCc=);strokeColor=#262626;labelBackgroundColor=none;rounded=0;html=1;whiteSpace=wrap;" vertex="1" parent="1">
          <mxGeometry x="268" y="831" width="103" height="34" as="geometry"/>
        </mxCell>
        <mxCell id="voBH_xsh9rp7hN0Ajwhn-18" value="&lt;font style=&quot;font-size:15px;font-family:Microsoft YaHei;color:#000000;direction:ltr;letter-spacing:0px;line-height:120%;opacity:1&quot;&gt;JS&lt;br/&gt;&lt;/font&gt;" style="verticalAlign=middle;align=center;vsdxID=25;fillColor=#ffffff;gradientColor=none;shape=stencil(nZBLDoAgDERP0z3SIyjew0SURgSD+Lu9kMZoXLhwN9O+tukAlrNpJg1SzDH4QW/URgNYgZTkjA4UkwJUgGXng+6DX1zLfmoymdXo17xh5zmRJ6Q42BWCfc2oJfdAr+Yv+AP9Cb7OJ3H/2JG1HNGz/84klThPVCc=);strokeColor=#262626;labelBackgroundColor=none;rounded=0;html=1;whiteSpace=wrap;" vertex="1" parent="1">
          <mxGeometry x="388" y="831" width="103" height="34" as="geometry"/>
        </mxCell>
        <mxCell id="voBH_xsh9rp7hN0Ajwhn-19" value="&lt;font style=&quot;font-size:16px;font-family:SimSun;color:#000000;direction:ltr;letter-spacing:0px;line-height:120%;opacity:1&quot;&gt;POC&lt;br/&gt;&lt;/font&gt;" style="verticalAlign=middle;align=center;vsdxID=30;fillColor=#ffffff;gradientColor=none;shape=stencil(vZPBcoMgEIafhqMMLjORnNP0PZgGlQkVZ6WNfftgVtsooT01t2X3Z5dv9WfyMLS6NwzEENCfzcWeQsvkCwOwXWvQhhgxeWTyUHs0DfqP7kTnXk/KKXr3n1OHke7tFYdqugXiizKlELfzK8k1vsUazvKSq5LUuMgVF4pS47rB0lABr2BWFHq0Q4E+6GB9R/VZ7TQ2pojjitrpZlUaLsb0SXp+oLOdyQ8vKw7qN57dBme3xUk3JJ4Gwyv5YHKGZNFigr70y63mCSi5XyLHohIWBSuWZDffX/7/Yf40TQx+DFdb58iv9/WtQWOKzC2PVw==);strokeColor=#262626;labelBackgroundColor=none;rounded=0;html=1;whiteSpace=wrap;" vertex="1" parent="1">
          <mxGeometry x="28" y="762" width="463" height="46" as="geometry"/>
        </mxCell>
        <mxCell id="voBH_xsh9rp7hN0Ajwhn-20" value="&lt;font style=&quot;font-size:16px;font-family:SimSun;color:#000000;direction:ltr;letter-spacing:0px;line-height:120%;opacity:1&quot;&gt;漏洞库&lt;br/&gt;&lt;/font&gt;" style="verticalAlign=middle;align=center;vsdxID=31;fillColor=#ffffff;gradientColor=none;shape=stencil(vZPBcoMgEIafhqMMLjORnNP0PZgGlQkVZ6WNfftgVtsooT01t2X3Z5dv9WfyMLS6NwzEENCfzcWeQsvkCwOwXWvQhhgxeWTyUHs0DfqP7kTnXk/KKXr3n1OHke7tFYdqugXiizKlELfzK8k1vsUazvKSq5LUuMgVF4pS47rB0lABr2BWFHq0Q4E+6GB9R/VZ7TQ2pojjitrpZlUaLsb0SXp+oLOdyQ8vKw7qN57dBme3xUk3JJ4Gwyv5YHKGZNFigr70y63mCSi5XyLHohIWBSuWZDffX/7/Yf40TQx+DFdb58iv9/WtQWOKzC2PVw==);strokeColor=#262626;labelBackgroundColor=none;rounded=0;html=1;whiteSpace=wrap;" vertex="1" parent="1">
          <mxGeometry x="28" y="703" width="463" height="46" as="geometry"/>
        </mxCell>
        <mxCell id="voBH_xsh9rp7hN0Ajwhn-21" value="&lt;font style=&quot;font-size:15px;font-family:Microsoft YaHei;color:#000000;direction:ltr;letter-spacing:0px;line-height:120%;opacity:1&quot;&gt;漏洞描述&lt;br/&gt;&lt;/font&gt;" style="verticalAlign=middle;align=center;vsdxID=32;fillColor=#ffffff;gradientColor=none;shape=stencil(nZBLDoAgDERP0z3SIyjew0SURgSD+Lu9kMZoXLhwN9O+tukAlrNpJg1SzDH4QW/URgNYgZTkjA4UkwJUgGXng+6DX1zLfmoymdXo17xh5zmRJ6Q42BWCfc2oJfdAr+Yv+AP9Cb7OJ3H/2JG1HNGz/84klThPVCc=);strokeColor=#262626;labelBackgroundColor=none;rounded=0;html=1;whiteSpace=wrap;" vertex="1" parent="1">
          <mxGeometry x="29" y="645" width="103" height="34" as="geometry"/>
        </mxCell>
        <mxCell id="voBH_xsh9rp7hN0Ajwhn-22" value="&lt;font style=&quot;font-size:15px;font-family:Microsoft YaHei;color:#000000;direction:ltr;letter-spacing:0px;line-height:120%;opacity:1&quot;&gt;关联ID&lt;br/&gt;&lt;/font&gt;" style="verticalAlign=middle;align=center;vsdxID=33;fillColor=#ffffff;gradientColor=none;shape=stencil(nZBLDoAgDERP0z3SIyjew0SURgSD+Lu9kMZoXLhwN9O+tukAlrNpJg1SzDH4QW/URgNYgZTkjA4UkwJUgGXng+6DX1zLfmoymdXo17xh5zmRJ6Q42BWCfc2oJfdAr+Yv+AP9Cb7OJ3H/2JG1HNGz/84klThPVCc=);strokeColor=#262626;labelBackgroundColor=none;rounded=0;html=1;whiteSpace=wrap;" vertex="1" parent="1">
          <mxGeometry x="149" y="645" width="103" height="34" as="geometry"/>
        </mxCell>
        <mxCell id="voBH_xsh9rp7hN0Ajwhn-23" style="vsdxID=36;edgeStyle=none;startArrow=none;endArrow=classic;startSize=5;endSize=5;spacingTop=0;spacingBottom=0;spacingLeft=0;spacingRight=0;verticalAlign=middle;html=1;labelBackgroundColor=#ffffff;rounded=0;" edge="1" parent="1">
          <mxGeometry relative="1" as="geometry">
            <Array as="points"/>
            <mxPoint x="92" y="679" as="sourcePoint"/>
            <mxPoint x="124" y="703" as="targetPoint"/>
          </mxGeometry>
        </mxCell>
        <mxCell id="voBH_xsh9rp7hN0Ajwhn-24" value="&lt;font style=&quot;font-size:15px;font-family:Microsoft YaHei;color:#000000;direction:ltr;letter-spacing:0px;line-height:120%;opacity:1&quot;&gt;发布信息&lt;br/&gt;&lt;/font&gt;" style="verticalAlign=middle;align=center;vsdxID=34;fillColor=#ffffff;gradientColor=none;shape=stencil(nZBLDoAgDERP0z3SIyjew0SURgSD+Lu9kMZoXLhwN9O+tukAlrNpJg1SzDH4QW/URgNYgZTkjA4UkwJUgGXng+6DX1zLfmoymdXo17xh5zmRJ6Q42BWCfc2oJfdAr+Yv+AP9Cb7OJ3H/2JG1HNGz/84klThPVCc=);strokeColor=#262626;labelBackgroundColor=none;rounded=0;html=1;whiteSpace=wrap;" vertex="1" parent="1">
          <mxGeometry x="269" y="645" width="103" height="34" as="geometry"/>
        </mxCell>
        <mxCell id="voBH_xsh9rp7hN0Ajwhn-25" value="&lt;font style=&quot;font-size:15px;font-family:Microsoft YaHei;color:#000000;direction:ltr;letter-spacing:0px;line-height:120%;opacity:1&quot;&gt;严重程度&lt;br/&gt;&lt;/font&gt;" style="verticalAlign=middle;align=center;vsdxID=35;fillColor=#ffffff;gradientColor=none;shape=stencil(nZBLDoAgDERP0z3SIyjew0SURgSD+Lu9kMZoXLhwN9O+tukAlrNpJg1SzDH4QW/URgNYgZTkjA4UkwJUgGXng+6DX1zLfmoymdXo17xh5zmRJ6Q42BWCfc2oJfdAr+Yv+AP9Cb7OJ3H/2JG1HNGz/84klThPVCc=);strokeColor=#262626;labelBackgroundColor=none;rounded=0;html=1;whiteSpace=wrap;" vertex="1" parent="1">
          <mxGeometry x="388" y="645" width="103" height="34" as="geometry"/>
        </mxCell>
        <mxCell id="voBH_xsh9rp7hN0Ajwhn-26" value="&lt;font style=&quot;font-size:15px;font-family:Microsoft YaHei;color:#000000;direction:ltr;letter-spacing:0px;line-height:120%;opacity:1&quot;&gt;标靶漏洞缺陷分析&lt;br/&gt;&lt;/font&gt;" style="verticalAlign=top;align=center;vsdxID=40;fillColor=#e2efd9;gradientColor=none;shape=stencil(nZBLDoAgDERP0z3SIyjew0SURgSD+Lu9kMZoXLhwN9O+tukAlrNpJg1SzDH4QW/URgNYgZTkjA4UkwJUgGXng+6DX1zLfmoymdXo17xh5zmRJ6Q42BWCfc2oJfdAr+Yv+AP9Cb7OJ3H/2JG1HNGz/84klThPVCc=);dashed=1;strokeColor=#262626;labelBackgroundColor=none;rounded=0;html=1;whiteSpace=wrap;" vertex="1" parent="1">
          <mxGeometry x="552" y="295" width="228" height="286" as="geometry"/>
        </mxCell>
        <mxCell id="voBH_xsh9rp7hN0Ajwhn-27" value="&lt;font style=&quot;font-size:15px;font-family:Microsoft YaHei;color:#000000;direction:ltr;letter-spacing:0px;line-height:120%;opacity:1&quot;&gt;节点信息分析&lt;br/&gt;&lt;/font&gt;" style="verticalAlign=middle;align=center;vsdxID=44;fillColor=#ffffff;gradientColor=none;shape=stencil(nZBLDoAgDERP0z3SIyjew0SURgSD+Lu9kMZoXLhwN9O+tukAlrNpJg1SzDH4QW/URgNYgZTkjA4UkwJUgGXng+6DX1zLfmoymdXo17xh5zmRJ6Q42BWCfc2oJfdAr+Yv+AP9Cb7OJ3H/2JG1HNGz/84klThPVCc=);strokeColor=#262626;labelBackgroundColor=none;rounded=0;html=1;whiteSpace=wrap;" vertex="1" parent="1">
          <mxGeometry x="588" y="331" width="119" height="34" as="geometry"/>
        </mxCell>
        <mxCell id="voBH_xsh9rp7hN0Ajwhn-28" value="&lt;font style=&quot;font-size:15px;font-family:Microsoft YaHei;color:#000000;direction:ltr;letter-spacing:0px;line-height:120%;opacity:1&quot;&gt;节点服务信息采集归纳&lt;br/&gt;&lt;/font&gt;" style="verticalAlign=middle;align=center;vsdxID=45;fillColor=#ffffff;gradientColor=none;shape=stencil(nZBLDoAgDERP0z3SIyjew0SURgSD+Lu9kMZoXLhwN9O+tukAlrNpJg1SzDH4QW/URgNYgZTkjA4UkwJUgGXng+6DX1zLfmoymdXo17xh5zmRJ6Q42BWCfc2oJfdAr+Yv+AP9Cb7OJ3H/2JG1HNGz/84klThPVCc=);strokeColor=#262626;labelBackgroundColor=none;rounded=0;html=1;whiteSpace=wrap;" vertex="1" parent="1">
          <mxGeometry x="588" y="389" width="119" height="49" as="geometry"/>
        </mxCell>
        <mxCell id="voBH_xsh9rp7hN0Ajwhn-29" value="&lt;font style=&quot;font-size:15px;font-family:Microsoft YaHei;color:#000000;direction:ltr;letter-spacing:0px;line-height:120%;opacity:1&quot;&gt;漏洞信息采集&lt;br/&gt;&lt;/font&gt;" style="verticalAlign=middle;align=center;vsdxID=46;fillColor=#ffffff;gradientColor=none;shape=stencil(nZBLDoAgDERP0z3SIyjew0SURgSD+Lu9kMZoXLhwN9O+tukAlrNpJg1SzDH4QW/URgNYgZTkjA4UkwJUgGXng+6DX1zLfmoymdXo17xh5zmRJ6Q42BWCfc2oJfdAr+Yv+AP9Cb7OJ3H/2JG1HNGz/84klThPVCc=);strokeColor=#262626;labelBackgroundColor=none;rounded=0;html=1;whiteSpace=wrap;" vertex="1" parent="1">
          <mxGeometry x="588" y="452" width="119" height="49" as="geometry"/>
        </mxCell>
        <mxCell id="voBH_xsh9rp7hN0Ajwhn-30" value="&lt;font style=&quot;font-size:16px;font-family:SimSun;color:#000000;direction:ltr;letter-spacing:0px;line-height:120%;opacity:1&quot;&gt;漏洞缺陷匹配&lt;br/&gt;&lt;/font&gt;" style="verticalAlign=middle;align=center;vsdxID=47;fillColor=#ffffff;gradientColor=none;shape=stencil(vZPRdoMgDIafhks5FETsdde9B6dF5YyJJ7LVvX1x0bXq6K7Wu5D8SfgCIeLQN7ozhLM+gH8zF3sODREvhHPbNgZsiBYRRyIOlQdTg/9oz3ju9KgcrXf/OVYYMG+f07wYszj7Qs+Ose/zK8o1nGIMJrmkBUc1zHJFpUDXsCwwFyw5VVPSkOnB9hn4oIP1LcYntdNQmyy2yyqn60WovxjTbdzTBZ1tTbp5vB4vH/GI3YqnoFIteLYjYs+ikVTmv3ROoMxa2LDP9VKzeQJK6k8kWNT6WRQt+YJlM5ufp/9/mD+3Jhq3jausc7iw9/H1hkYXbrc4XgE=);strokeColor=#262626;labelBackgroundColor=none;rounded=0;html=1;whiteSpace=wrap;" vertex="1" parent="1">
          <mxGeometry x="576" y="525" width="144" height="46" as="geometry"/>
        </mxCell>
        <mxCell id="voBH_xsh9rp7hN0Ajwhn-31" value="&lt;font style=&quot;font-size:15px;font-family:Microsoft YaHei;color:#000000;direction:ltr;letter-spacing:0px;line-height:120%;opacity:1&quot;&gt;系统日志&lt;br/&gt;&lt;/font&gt;" style="verticalAlign=top;align=center;vsdxID=52;fillColor=#fff2cc;gradientColor=none;shape=stencil(nZBLDoAgDERP0z3SIyjew0SURgSD+Lu9kMZoXLhwN9O+tukAlrNpJg1SzDH4QW/URgNYgZTkjA4UkwJUgGXng+6DX1zLfmoymdXo17xh5zmRJ6Q42BWCfc2oJfdAr+Yv+AP9Cb7OJ3H/2JG1HNGz/84klThPVCc=);dashed=1;strokeColor=#262626;labelBackgroundColor=none;rounded=0;html=1;whiteSpace=wrap;" vertex="1" parent="1">
          <mxGeometry x="552" y="605" width="228" height="286" as="geometry"/>
        </mxCell>
        <mxCell id="voBH_xsh9rp7hN0Ajwhn-32" value="&lt;font style=&quot;font-size:15px;font-family:Microsoft YaHei;color:#000000;direction:ltr;letter-spacing:0px;line-height:120%;opacity:1&quot;&gt;标靶历史信息&lt;br/&gt;&lt;/font&gt;" style="verticalAlign=middle;align=center;vsdxID=53;fillColor=#ffffff;gradientColor=none;shape=stencil(nZBLDoAgDERP0z3SIyjew0SURgSD+Lu9kMZoXLhwN9O+tukAlrNpJg1SzDH4QW/URgNYgZTkjA4UkwJUgGXng+6DX1zLfmoymdXo17xh5zmRJ6Q42BWCfc2oJfdAr+Yv+AP9Cb7OJ3H/2JG1HNGz/84klThPVCc=);strokeColor=#262626;labelBackgroundColor=none;rounded=0;html=1;whiteSpace=wrap;" vertex="1" parent="1">
          <mxGeometry x="604" y="645" width="119" height="46" as="geometry"/>
        </mxCell>
        <mxCell id="voBH_xsh9rp7hN0Ajwhn-33" value="&lt;font style=&quot;font-size:15px;font-family:Microsoft YaHei;color:#000000;direction:ltr;letter-spacing:0px;line-height:120%;opacity:1&quot;&gt;安全日志&lt;br/&gt;&lt;/font&gt;" style="verticalAlign=middle;align=center;vsdxID=54;fillColor=#ffffff;gradientColor=none;shape=stencil(nZBLDoAgDERP0z3SIyjew0SURgSD+Lu9kMZoXLhwN9O+tukAlrNpJg1SzDH4QW/URgNYgZTkjA4UkwJUgGXng+6DX1zLfmoymdXo17xh5zmRJ6Q42BWCfc2oJfdAr+Yv+AP9Cb7OJ3H/2JG1HNGz/84klThPVCc=);strokeColor=#262626;labelBackgroundColor=none;rounded=0;html=1;whiteSpace=wrap;" vertex="1" parent="1">
          <mxGeometry x="604" y="703" width="119" height="49" as="geometry"/>
        </mxCell>
        <mxCell id="voBH_xsh9rp7hN0Ajwhn-34" value="&lt;font style=&quot;font-size:15px;font-family:Microsoft YaHei;color:#000000;direction:ltr;letter-spacing:0px;line-height:120%;opacity:1&quot;&gt;操作日志&lt;br/&gt;&lt;/font&gt;" style="verticalAlign=middle;align=center;vsdxID=55;fillColor=#ffffff;gradientColor=none;shape=stencil(nZBLDoAgDERP0z3SIyjew0SURgSD+Lu9kMZoXLhwN9O+tukAlrNpJg1SzDH4QW/URgNYgZTkjA4UkwJUgGXng+6DX1zLfmoymdXo17xh5zmRJ6Q42BWCfc2oJfdAr+Yv+AP9Cb7OJ3H/2JG1HNGz/84klThPVCc=);strokeColor=#262626;labelBackgroundColor=none;rounded=0;html=1;whiteSpace=wrap;" vertex="1" parent="1">
          <mxGeometry x="604" y="766" width="119" height="49" as="geometry"/>
        </mxCell>
        <mxCell id="voBH_xsh9rp7hN0Ajwhn-35" value="&lt;p style=&quot;align:center;margin-left:0;margin-right:0;margin-top:0px;margin-bottom:0px;text-indent:0;valign:middle;direction:ltr;&quot;&gt;&lt;font style=&quot;font-size:16px;font-family:SimSun;color:#000000;direction:ltr;letter-spacing:0px;line-height:120%;opacity:1&quot;&gt;错误日志&lt;/font&gt;&lt;font style=&quot;font-size:15px;font-family:Microsoft YaHei;color:#000000;direction:ltr;letter-spacing:0px;line-height:120%;opacity:1&quot;&gt;&lt;br/&gt;&lt;/font&gt;&lt;/p&gt;" style="verticalAlign=middle;align=center;vsdxID=56;fillColor=#ffffff;gradientColor=none;shape=stencil(nZBLDoAgDERP0z3SIyjew0SURgSD+Lu9kMZoXLhwN9O+tukAlrNpJg1SzDH4QW/URgNYgZTkjA4UkwJUgGXng+6DX1zLfmoymdXo17xh5zmRJ6Q42BWCfc2oJfdAr+Yv+AP9Cb7OJ3H/2JG1HNGz/84klThPVCc=);strokeColor=#262626;labelBackgroundColor=none;rounded=0;html=1;whiteSpace=wrap;" vertex="1" parent="1">
          <mxGeometry x="604" y="828" width="119" height="49" as="geometry"/>
        </mxCell>
        <mxCell id="voBH_xsh9rp7hN0Ajwhn-36" style="vsdxID=57;fillColor=#FFFFFF;gradientColor=none;shape=stencil(rZLNDoMgDMefhqMGQZNxdu49yEQlY2AKm+7tB8FsaOZ22a0fv9L+aRGt7cBHgQi2DsxFTLJ1A6JHRIjUgwDpvIVog2jdGRA9mJtuoz/yQAbrau7hhTnW4VBB8CP1ThFUUu+CVU6rlOVw9klYWMZydog8LAVl9QotUIE3TxY5LRci47O0GRjHnTR6NYDi0IvM98s6xftVyk5CjEm42FezbR7GY98FsV+CPn3lv6SsFuON9zo7qVS8hjS/Xb8PxdOhzRM=);labelBackgroundColor=none;rounded=0;html=1;whiteSpace=wrap;" vertex="1" parent="1">
          <mxGeometry x="772" y="417" width="64" height="374" as="geometry"/>
        </mxCell>
        <mxCell id="voBH_xsh9rp7hN0Ajwhn-37" style="vsdxID=58;fillColor=#e4e4e4;gradientColor=none;shape=stencil(rZLdEoIgEIWfhksZYbXkup/3YAqVicRZ6e/tg9BJy5mmqbtl93zAgUNg1dWyVYSnnUN7UBe9dzWBNeFcN7VC7XxFYENgVVpUFdpTs4/rVgZlqI72HHa4Ri4NBE9vcSUyusgfnW0UG92MxMAozydAISiwbwDBqCjGgMSdn2IPLAq6zCKAPZHlAzHsytLprYNC9IpEXnWXoHXSadtMPBqJlUr8eUlpZDUZdRel2rf2rKXXw3NGIfvR0MwzLSnAXy199UuDyVn5h8j44hm2UhsTszqev4bTt2KwYXMH);strokeColor=#000000;labelBackgroundColor=none;rounded=0;html=1;whiteSpace=wrap;" vertex="1" parent="voBH_xsh9rp7hN0Ajwhn-36">
          <mxGeometry width="64" height="374" as="geometry"/>
        </mxCell>
        <mxCell id="voBH_xsh9rp7hN0Ajwhn-38" style="vsdxID=51;edgeStyle=none;startArrow=none;endArrow=classic;startSize=9;endSize=9;spacingTop=0;spacingBottom=0;spacingLeft=0;spacingRight=0;verticalAlign=middle;html=1;labelBackgroundColor=#ffffff;rounded=0;exitX=0.5042016806722689;exitY=1;exitDx=0;exitDy=0;exitPerimeter=0;entryX=0.5;entryY=0;entryDx=0;entryDy=0;entryPerimeter=0;" edge="1" parent="1" source="voBH_xsh9rp7hN0Ajwhn-29" target="voBH_xsh9rp7hN0Ajwhn-30">
          <mxGeometry relative="1" as="geometry">
            <mxPoint x="-10" y="-1" as="offset"/>
            <Array as="points">
              <mxPoint x="648" y="508.5"/>
              <mxPoint x="647.64" y="508.5"/>
            </Array>
          </mxGeometry>
        </mxCell>
        <mxCell id="voBH_xsh9rp7hN0Ajwhn-39" style="vsdxID=50;edgeStyle=none;startArrow=none;endArrow=classic;startSize=9;endSize=9;spacingTop=0;spacingBottom=0;spacingLeft=0;spacingRight=0;verticalAlign=middle;html=1;labelBackgroundColor=#ffffff;rounded=0;exitX=1.0084033613445378;exitY=0.4897959183673469;exitDx=0;exitDy=0;exitPerimeter=0;entryX=1;entryY=0.5;entryDx=0;entryDy=0;entryPerimeter=0;" edge="1" parent="1" source="voBH_xsh9rp7hN0Ajwhn-28" target="voBH_xsh9rp7hN0Ajwhn-30">
          <mxGeometry relative="1" as="geometry">
            <mxPoint x="4" as="offset"/>
            <Array as="points">
              <mxPoint x="735" y="413"/>
              <mxPoint x="735" y="547.64"/>
            </Array>
          </mxGeometry>
        </mxCell>
        <mxCell id="voBH_xsh9rp7hN0Ajwhn-40" style="vsdxID=49;edgeStyle=none;startArrow=none;endArrow=classic;startSize=9;endSize=9;spacingTop=0;spacingBottom=0;spacingLeft=0;spacingRight=0;verticalAlign=middle;html=1;labelBackgroundColor=#ffffff;rounded=0;exitX=1.0084033613445378;exitY=0.5;exitDx=0;exitDy=0;exitPerimeter=0;entryX=1;entryY=0.5;entryDx=0;entryDy=0;entryPerimeter=0;" edge="1" parent="1" source="voBH_xsh9rp7hN0Ajwhn-27" target="voBH_xsh9rp7hN0Ajwhn-30">
          <mxGeometry relative="1" as="geometry">
            <mxPoint x="4" as="offset"/>
            <Array as="points">
              <mxPoint x="735" y="348"/>
              <mxPoint x="735" y="548.3"/>
            </Array>
          </mxGeometry>
        </mxCell>
        <mxCell id="voBH_xsh9rp7hN0Ajwhn-41" style="vsdxID=48;edgeStyle=none;startArrow=none;endArrow=classic;startSize=9;endSize=9;spacingTop=0;spacingBottom=0;spacingLeft=0;spacingRight=0;verticalAlign=middle;html=1;labelBackgroundColor=#ffffff;rounded=0;exitX=1.0021598272138228;exitY=0.5;exitDx=0;exitDy=0;exitPerimeter=0;entryX=0;entryY=0.4897959183673469;entryDx=0;entryDy=0;entryPerimeter=0;" edge="1" parent="1" source="voBH_xsh9rp7hN0Ajwhn-13" target="voBH_xsh9rp7hN0Ajwhn-28">
          <mxGeometry relative="1" as="geometry">
            <mxPoint x="-1" as="offset"/>
            <Array as="points">
              <mxPoint x="507" y="534"/>
              <mxPoint x="507" y="460.84"/>
              <mxPoint x="568.11" y="460.84"/>
              <mxPoint x="568.11" y="413.34"/>
            </Array>
          </mxGeometry>
        </mxCell>
        <mxCell id="voBH_xsh9rp7hN0Ajwhn-42" style="vsdxID=43;edgeStyle=none;startArrow=none;endArrow=classic;startSize=9;endSize=9;spacingTop=0;spacingBottom=0;spacingLeft=0;spacingRight=0;verticalAlign=middle;html=1;labelBackgroundColor=#ffffff;rounded=0;exitX=1.0021598272138228;exitY=0.5;exitDx=0;exitDy=0;exitPerimeter=0;entryX=0;entryY=0.5102040816326531;entryDx=0;entryDy=0;entryPerimeter=0;" edge="1" parent="1" source="voBH_xsh9rp7hN0Ajwhn-19" target="voBH_xsh9rp7hN0Ajwhn-29">
          <mxGeometry relative="1" as="geometry">
            <mxPoint y="-1" as="offset"/>
            <Array as="points">
              <mxPoint x="530.96" y="785"/>
              <mxPoint x="530.96" y="477"/>
            </Array>
          </mxGeometry>
        </mxCell>
        <mxCell id="voBH_xsh9rp7hN0Ajwhn-43" style="vsdxID=42;edgeStyle=none;startArrow=none;endArrow=classic;startSize=9;endSize=9;spacingTop=0;spacingBottom=0;spacingLeft=0;spacingRight=0;verticalAlign=middle;html=1;labelBackgroundColor=#ffffff;rounded=0;exitX=1.0021598272138228;exitY=0.5;exitDx=0;exitDy=0;exitPerimeter=0;entryX=0;entryY=0.5102040816326531;entryDx=0;entryDy=0;entryPerimeter=0;" edge="1" parent="1" source="voBH_xsh9rp7hN0Ajwhn-20" target="voBH_xsh9rp7hN0Ajwhn-29">
          <mxGeometry relative="1" as="geometry">
            <mxPoint as="offset"/>
            <Array as="points">
              <mxPoint x="530.96" y="726"/>
              <mxPoint x="530.96" y="477.14"/>
            </Array>
          </mxGeometry>
        </mxCell>
        <mxCell id="voBH_xsh9rp7hN0Ajwhn-44" style="vsdxID=41;edgeStyle=none;startArrow=none;endArrow=classic;startSize=9;endSize=9;spacingTop=0;spacingBottom=0;spacingLeft=0;spacingRight=0;verticalAlign=middle;html=1;labelBackgroundColor=#ffffff;rounded=0;exitX=1.0021598272138228;exitY=0.5;exitDx=0;exitDy=0;exitPerimeter=0;entryX=0;entryY=0.5;entryDx=0;entryDy=0;entryPerimeter=0;" edge="1" parent="1" source="voBH_xsh9rp7hN0Ajwhn-6" target="voBH_xsh9rp7hN0Ajwhn-27">
          <mxGeometry relative="1" as="geometry">
            <mxPoint as="offset"/>
            <Array as="points">
              <mxPoint x="507" y="412"/>
              <mxPoint x="507" y="347.7"/>
            </Array>
          </mxGeometry>
        </mxCell>
        <mxCell id="voBH_xsh9rp7hN0Ajwhn-45" vertex="1" parent="1">
          <mxGeometry x="400" y="703" as="geometry"/>
        </mxCell>
        <mxCell id="voBH_xsh9rp7hN0Ajwhn-46" style="vsdxID=39;edgeStyle=none;startArrow=none;endArrow=classic;startSize=5;endSize=5;spacingTop=0;spacingBottom=0;spacingLeft=0;spacingRight=0;verticalAlign=middle;html=1;labelBackgroundColor=#ffffff;rounded=0;" edge="1" parent="1" source="voBH_xsh9rp7hN0Ajwhn-25" target="voBH_xsh9rp7hN0Ajwhn-45">
          <mxGeometry relative="1" as="geometry">
            <Array as="points">
              <mxPoint x="440" y="679"/>
              <mxPoint x="400.16" y="703"/>
            </Array>
          </mxGeometry>
        </mxCell>
        <mxCell id="voBH_xsh9rp7hN0Ajwhn-47" vertex="1" parent="1">
          <mxGeometry x="300" y="703" as="geometry"/>
        </mxCell>
        <mxCell id="voBH_xsh9rp7hN0Ajwhn-48" style="vsdxID=38;edgeStyle=none;startArrow=none;endArrow=classic;startSize=5;endSize=5;spacingTop=0;spacingBottom=0;spacingLeft=0;spacingRight=0;verticalAlign=middle;html=1;labelBackgroundColor=#ffffff;rounded=0;" edge="1" parent="1" source="voBH_xsh9rp7hN0Ajwhn-24" target="voBH_xsh9rp7hN0Ajwhn-47">
          <mxGeometry relative="1" as="geometry">
            <Array as="points">
              <mxPoint x="320" y="679"/>
              <mxPoint x="299.84" y="703"/>
            </Array>
          </mxGeometry>
        </mxCell>
        <mxCell id="voBH_xsh9rp7hN0Ajwhn-49" vertex="1" parent="1">
          <mxGeometry x="212" y="703" as="geometry"/>
        </mxCell>
        <mxCell id="voBH_xsh9rp7hN0Ajwhn-50" style="vsdxID=37;edgeStyle=none;startArrow=none;endArrow=classic;startSize=5;endSize=5;spacingTop=0;spacingBottom=0;spacingLeft=0;spacingRight=0;verticalAlign=middle;html=1;labelBackgroundColor=#ffffff;rounded=0;" edge="1" parent="1" source="voBH_xsh9rp7hN0Ajwhn-22" target="voBH_xsh9rp7hN0Ajwhn-49">
          <mxGeometry relative="1" as="geometry">
            <Array as="points">
              <mxPoint x="200" y="679"/>
              <mxPoint x="211.84" y="703"/>
            </Array>
          </mxGeometry>
        </mxCell>
        <mxCell id="voBH_xsh9rp7hN0Ajwhn-51" vertex="1" parent="1">
          <mxGeometry x="395" y="809" as="geometry"/>
        </mxCell>
        <mxCell id="voBH_xsh9rp7hN0Ajwhn-52" style="vsdxID=29;edgeStyle=none;startArrow=none;endArrow=classic;startSize=5;endSize=5;spacingTop=0;spacingBottom=0;spacingLeft=0;spacingRight=0;verticalAlign=middle;html=1;labelBackgroundColor=#ffffff;rounded=0;" edge="1" parent="1" source="voBH_xsh9rp7hN0Ajwhn-18" target="voBH_xsh9rp7hN0Ajwhn-51">
          <mxGeometry relative="1" as="geometry">
            <Array as="points">
              <mxPoint x="439" y="831"/>
              <mxPoint x="394.84" y="809.62"/>
            </Array>
          </mxGeometry>
        </mxCell>
        <mxCell id="voBH_xsh9rp7hN0Ajwhn-53" vertex="1" parent="1">
          <mxGeometry x="299" y="809" as="geometry"/>
        </mxCell>
        <mxCell id="voBH_xsh9rp7hN0Ajwhn-54" style="vsdxID=28;edgeStyle=none;startArrow=none;endArrow=classic;startSize=5;endSize=5;spacingTop=0;spacingBottom=0;spacingLeft=0;spacingRight=0;verticalAlign=middle;html=1;labelBackgroundColor=#ffffff;rounded=0;" edge="1" parent="1" source="voBH_xsh9rp7hN0Ajwhn-17" target="voBH_xsh9rp7hN0Ajwhn-53">
          <mxGeometry relative="1" as="geometry">
            <Array as="points">
              <mxPoint x="320" y="831"/>
              <mxPoint x="299.53" y="809.62"/>
            </Array>
          </mxGeometry>
        </mxCell>
        <mxCell id="voBH_xsh9rp7hN0Ajwhn-55" vertex="1" parent="1">
          <mxGeometry x="211" y="809" as="geometry"/>
        </mxCell>
        <mxCell id="voBH_xsh9rp7hN0Ajwhn-56" style="vsdxID=27;edgeStyle=none;startArrow=none;endArrow=classic;startSize=5;endSize=5;spacingTop=0;spacingBottom=0;spacingLeft=0;spacingRight=0;verticalAlign=middle;html=1;labelBackgroundColor=#ffffff;rounded=0;" edge="1" parent="1" source="voBH_xsh9rp7hN0Ajwhn-16" target="voBH_xsh9rp7hN0Ajwhn-55">
          <mxGeometry relative="1" as="geometry">
            <Array as="points">
              <mxPoint x="200" y="831"/>
              <mxPoint x="211.53" y="809.62"/>
            </Array>
          </mxGeometry>
        </mxCell>
        <mxCell id="voBH_xsh9rp7hN0Ajwhn-57" style="vsdxID=7;edgeStyle=none;startArrow=none;endArrow=none;startSize=9;endSize=9;spacingTop=0;spacingBottom=0;spacingLeft=0;spacingRight=0;verticalAlign=middle;html=1;labelBackgroundColor=#ffffff;rounded=0;exitX=0.5;exitY=1;exitDx=0;exitDy=0;exitPerimeter=0;entryX=0.5;entryY=1;entryDx=0;entryDy=0;entryPerimeter=0;" edge="1" parent="1" source="voBH_xsh9rp7hN0Ajwhn-1" target="voBH_xsh9rp7hN0Ajwhn-1">
          <mxGeometry relative="1" as="geometry">
            <mxPoint x="10" y="-10" as="offset"/>
            <Array as="points">
              <mxPoint x="262" y="591"/>
              <mxPoint x="262" y="591"/>
            </Array>
          </mxGeometry>
        </mxCell>
        <mxCell id="voBH_xsh9rp7hN0Ajwhn-58" vertex="1" parent="1">
          <mxGeometry x="212" y="511" as="geometry"/>
        </mxCell>
        <mxCell id="voBH_xsh9rp7hN0Ajwhn-59" style="vsdxID=18;edgeStyle=none;startArrow=none;endArrow=classic;startSize=5;endSize=5;spacingTop=0;spacingBottom=0;spacingLeft=0;spacingRight=0;verticalAlign=middle;html=1;labelBackgroundColor=#ffffff;rounded=0;" edge="1" parent="1" source="voBH_xsh9rp7hN0Ajwhn-9" target="voBH_xsh9rp7hN0Ajwhn-58">
          <mxGeometry relative="1" as="geometry">
            <Array as="points">
              <mxPoint x="200" y="487"/>
              <mxPoint x="211.84" y="511"/>
            </Array>
          </mxGeometry>
        </mxCell>
        <mxCell id="voBH_xsh9rp7hN0Ajwhn-60" vertex="1" parent="1">
          <mxGeometry x="300" y="511" as="geometry"/>
        </mxCell>
        <mxCell id="voBH_xsh9rp7hN0Ajwhn-61" style="vsdxID=19;edgeStyle=none;startArrow=none;endArrow=classic;startSize=5;endSize=5;spacingTop=0;spacingBottom=0;spacingLeft=0;spacingRight=0;verticalAlign=middle;html=1;labelBackgroundColor=#ffffff;rounded=0;" edge="1" parent="1" source="voBH_xsh9rp7hN0Ajwhn-10" target="voBH_xsh9rp7hN0Ajwhn-60">
          <mxGeometry relative="1" as="geometry">
            <Array as="points">
              <mxPoint x="320" y="487"/>
              <mxPoint x="299.84" y="511"/>
            </Array>
          </mxGeometry>
        </mxCell>
        <mxCell id="voBH_xsh9rp7hN0Ajwhn-62" vertex="1" parent="1">
          <mxGeometry x="400" y="511" as="geometry"/>
        </mxCell>
        <mxCell id="voBH_xsh9rp7hN0Ajwhn-63" style="vsdxID=20;edgeStyle=none;startArrow=none;endArrow=classic;startSize=5;endSize=5;spacingTop=0;spacingBottom=0;spacingLeft=0;spacingRight=0;verticalAlign=middle;html=1;labelBackgroundColor=#ffffff;rounded=0;" edge="1" parent="1" source="voBH_xsh9rp7hN0Ajwhn-11" target="voBH_xsh9rp7hN0Ajwhn-62">
          <mxGeometry relative="1" as="geometry">
            <Array as="points">
              <mxPoint x="440" y="487"/>
              <mxPoint x="400.16" y="511"/>
            </Array>
          </mxGeometry>
        </mxCell>
        <mxCell id="voBH_xsh9rp7hN0Ajwhn-64" vertex="1" parent="1">
          <mxGeometry x="123" y="809" as="geometry"/>
        </mxCell>
        <mxCell id="voBH_xsh9rp7hN0Ajwhn-65" style="vsdxID=26;edgeStyle=none;startArrow=none;endArrow=classic;startSize=5;endSize=5;spacingTop=0;spacingBottom=0;spacingLeft=0;spacingRight=0;verticalAlign=middle;html=1;labelBackgroundColor=#ffffff;rounded=0;" edge="1" parent="1" source="voBH_xsh9rp7hN0Ajwhn-15" target="voBH_xsh9rp7hN0Ajwhn-64">
          <mxGeometry relative="1" as="geometry">
            <Array as="points">
              <mxPoint x="80" y="831"/>
              <mxPoint x="123.53" y="809.62"/>
            </Array>
          </mxGeometry>
        </mxCell>
        <mxCell id="voBH_xsh9rp7hN0Ajwhn-66" vertex="1" parent="1">
          <mxGeometry x="212" y="389" as="geometry"/>
        </mxCell>
        <mxCell id="voBH_xsh9rp7hN0Ajwhn-67" style="vsdxID=9;edgeStyle=none;startArrow=none;endArrow=classic;startSize=5;endSize=5;spacingTop=0;spacingBottom=0;spacingLeft=0;spacingRight=0;verticalAlign=middle;html=1;labelBackgroundColor=#ffffff;rounded=0;" edge="1" parent="1" source="voBH_xsh9rp7hN0Ajwhn-3" target="voBH_xsh9rp7hN0Ajwhn-66">
          <mxGeometry relative="1" as="geometry">
            <Array as="points">
              <mxPoint x="200" y="365"/>
              <mxPoint x="211.84" y="389"/>
            </Array>
          </mxGeometry>
        </mxCell>
        <mxCell id="voBH_xsh9rp7hN0Ajwhn-68" vertex="1" parent="1">
          <mxGeometry x="300" y="389" as="geometry"/>
        </mxCell>
        <mxCell id="voBH_xsh9rp7hN0Ajwhn-69" style="vsdxID=10;edgeStyle=none;startArrow=none;endArrow=classic;startSize=5;endSize=5;spacingTop=0;spacingBottom=0;spacingLeft=0;spacingRight=0;verticalAlign=middle;html=1;labelBackgroundColor=#ffffff;rounded=0;" edge="1" parent="1" source="voBH_xsh9rp7hN0Ajwhn-4" target="voBH_xsh9rp7hN0Ajwhn-68">
          <mxGeometry relative="1" as="geometry">
            <Array as="points">
              <mxPoint x="320" y="365"/>
              <mxPoint x="299.84" y="389"/>
            </Array>
          </mxGeometry>
        </mxCell>
        <mxCell id="voBH_xsh9rp7hN0Ajwhn-70" vertex="1" parent="1">
          <mxGeometry x="400" y="389" as="geometry"/>
        </mxCell>
        <mxCell id="voBH_xsh9rp7hN0Ajwhn-71" style="vsdxID=11;edgeStyle=none;startArrow=none;endArrow=classic;startSize=5;endSize=5;spacingTop=0;spacingBottom=0;spacingLeft=0;spacingRight=0;verticalAlign=middle;html=1;labelBackgroundColor=#ffffff;rounded=0;" edge="1" parent="1" source="voBH_xsh9rp7hN0Ajwhn-5" target="voBH_xsh9rp7hN0Ajwhn-70">
          <mxGeometry relative="1" as="geometry">
            <Array as="points">
              <mxPoint x="440" y="365"/>
              <mxPoint x="400.16" y="389"/>
            </Array>
          </mxGeometry>
        </mxCell>
      </root>
    </mxGraphModel>
  </diagram>
  <diagram id="4njBDVy8HFhX5A2vsk1p" name="固件漏洞">
    <mxGraphModel dx="1024" dy="534" grid="1" gridSize="10" guides="1" tooltips="1" connect="1" arrows="1" fold="1" page="1" pageScale="1" pageWidth="827" pageHeight="1169" math="0" shadow="0">
      <root>
        <mxCell id="67REWQIAH_ysqliAc44E-0"/>
        <mxCell id="67REWQIAH_ysqliAc44E-1" parent="67REWQIAH_ysqliAc44E-0"/>
        <mxCell id="RzbE2ylmn-Bbew9sLOly-0" value="&lt;font style=&quot;font-size:15px;font-family:Microsoft YaHei;color:#000000;direction:ltr;letter-spacing:0px;line-height:120%;opacity:1&quot;&gt;节点设备&lt;br/&gt;&lt;/font&gt;" style="verticalAlign=top;align=center;vsdxID=1;fillColor=#deebf6;gradientColor=none;shape=stencil(nZBLDoAgDERP0z3SIyjew0SURgSD+Lu9kMZoXLhwN9O+tukAlrNpJg1SzDH4QW/URgNYgZTkjA4UkwJUgGXng+6DX1zLfmoymdXo17xh5zmRJ6Q42BWCfc2oJfdAr+Yv+AP9Cb7OJ3H/2JG1HNGz/84klThPVCc=);dashed=1;strokeColor=#262626;labelBackgroundColor=none;rounded=0;html=1;whiteSpace=wrap;" vertex="1" parent="67REWQIAH_ysqliAc44E-1">
          <mxGeometry x="4" y="295" width="516" height="286" as="geometry"/>
        </mxCell>
        <mxCell id="RzbE2ylmn-Bbew9sLOly-1" value="&lt;font style=&quot;font-size:15px;font-family:Microsoft YaHei;color:#000000;direction:ltr;letter-spacing:0px;line-height:120%;opacity:1&quot;&gt;CPU&lt;br/&gt;&lt;/font&gt;" style="verticalAlign=middle;align=center;vsdxID=2;fillColor=#ffffff;gradientColor=none;shape=stencil(nZBLDoAgDERP0z3SIyjew0SURgSD+Lu9kMZoXLhwN9O+tukAlrNpJg1SzDH4QW/URgNYgZTkjA4UkwJUgGXng+6DX1zLfmoymdXo17xh5zmRJ6Q42BWCfc2oJfdAr+Yv+AP9Cb7OJ3H/2JG1HNGz/84klThPVCc=);strokeColor=#262626;labelBackgroundColor=none;rounded=0;html=1;whiteSpace=wrap;" vertex="1" parent="67REWQIAH_ysqliAc44E-1">
          <mxGeometry x="28" y="331" width="103" height="34" as="geometry"/>
        </mxCell>
        <mxCell id="RzbE2ylmn-Bbew9sLOly-2" value="&lt;font style=&quot;font-size:15px;font-family:Microsoft YaHei;color:#000000;direction:ltr;letter-spacing:0px;line-height:120%;opacity:1&quot;&gt;内存&lt;br/&gt;&lt;/font&gt;" style="verticalAlign=middle;align=center;vsdxID=3;fillColor=#ffffff;gradientColor=none;shape=stencil(nZBLDoAgDERP0z3SIyjew0SURgSD+Lu9kMZoXLhwN9O+tukAlrNpJg1SzDH4QW/URgNYgZTkjA4UkwJUgGXng+6DX1zLfmoymdXo17xh5zmRJ6Q42BWCfc2oJfdAr+Yv+AP9Cb7OJ3H/2JG1HNGz/84klThPVCc=);strokeColor=#262626;labelBackgroundColor=none;rounded=0;html=1;whiteSpace=wrap;" vertex="1" parent="67REWQIAH_ysqliAc44E-1">
          <mxGeometry x="148" y="331" width="103" height="34" as="geometry"/>
        </mxCell>
        <mxCell id="RzbE2ylmn-Bbew9sLOly-3" value="&lt;font style=&quot;font-size:15px;font-family:Microsoft YaHei;color:#000000;direction:ltr;letter-spacing:0px;line-height:120%;opacity:1&quot;&gt;存储&lt;br/&gt;&lt;/font&gt;" style="verticalAlign=middle;align=center;vsdxID=4;fillColor=#ffffff;gradientColor=none;shape=stencil(nZBLDoAgDERP0z3SIyjew0SURgSD+Lu9kMZoXLhwN9O+tukAlrNpJg1SzDH4QW/URgNYgZTkjA4UkwJUgGXng+6DX1zLfmoymdXo17xh5zmRJ6Q42BWCfc2oJfdAr+Yv+AP9Cb7OJ3H/2JG1HNGz/84klThPVCc=);strokeColor=#262626;labelBackgroundColor=none;rounded=0;html=1;whiteSpace=wrap;" vertex="1" parent="67REWQIAH_ysqliAc44E-1">
          <mxGeometry x="268" y="331" width="103" height="34" as="geometry"/>
        </mxCell>
        <mxCell id="RzbE2ylmn-Bbew9sLOly-4" value="&lt;font style=&quot;font-size:15px;font-family:Microsoft YaHei;color:#000000;direction:ltr;letter-spacing:0px;line-height:120%;opacity:1&quot;&gt;网络&lt;br/&gt;&lt;/font&gt;" style="verticalAlign=middle;align=center;vsdxID=5;fillColor=#ffffff;gradientColor=none;shape=stencil(nZBLDoAgDERP0z3SIyjew0SURgSD+Lu9kMZoXLhwN9O+tukAlrNpJg1SzDH4QW/URgNYgZTkjA4UkwJUgGXng+6DX1zLfmoymdXo17xh5zmRJ6Q42BWCfc2oJfdAr+Yv+AP9Cb7OJ3H/2JG1HNGz/84klThPVCc=);strokeColor=#262626;labelBackgroundColor=none;rounded=0;html=1;whiteSpace=wrap;" vertex="1" parent="67REWQIAH_ysqliAc44E-1">
          <mxGeometry x="388" y="331" width="103" height="34" as="geometry"/>
        </mxCell>
        <mxCell id="RzbE2ylmn-Bbew9sLOly-5" value="&lt;font style=&quot;font-size:16px;font-family:SimSun;color:#000000;direction:ltr;letter-spacing:0px;line-height:120%;opacity:1&quot;&gt;设备资源使用信息&lt;br/&gt;&lt;/font&gt;" style="verticalAlign=middle;align=center;vsdxID=6;fillColor=#ffffff;gradientColor=none;shape=stencil(vZPBcoMgEIafhqMMLjORnNP0PZgGlQkVZ6WNfftgVtsooT01t2X3Z5dv9WfyMLS6NwzEENCfzcWeQsvkCwOwXWvQhhgxeWTyUHs0DfqP7kTnXk/KKXr3n1OHke7tFYdqugXiizKlELfzK8k1vsUazvKSq5LUuMgVF4pS47rB0lABr2BWFHq0Q4E+6GB9R/VZ7TQ2pojjitrpZlUaLsb0SXp+oLOdyQ8vKw7qN57dBme3xUk3JJ4Gwyv5YHKGZNFigr70y63mCSi5XyLHohIWBSuWZDffX/7/Yf40TQx+DFdb58iv9/WtQWOKzC2PVw==);strokeColor=#262626;labelBackgroundColor=none;rounded=0;html=1;whiteSpace=wrap;" vertex="1" parent="67REWQIAH_ysqliAc44E-1">
          <mxGeometry x="28" y="389" width="463" height="46" as="geometry"/>
        </mxCell>
        <mxCell id="RzbE2ylmn-Bbew9sLOly-6" style="vsdxID=8;edgeStyle=none;startArrow=none;endArrow=classic;startSize=5;endSize=5;spacingTop=0;spacingBottom=0;spacingLeft=0;spacingRight=0;verticalAlign=middle;html=1;labelBackgroundColor=#ffffff;rounded=0;" edge="1" parent="67REWQIAH_ysqliAc44E-1">
          <mxGeometry relative="1" as="geometry">
            <Array as="points"/>
            <mxPoint x="92" y="365" as="sourcePoint"/>
            <mxPoint x="124" y="389" as="targetPoint"/>
          </mxGeometry>
        </mxCell>
        <mxCell id="RzbE2ylmn-Bbew9sLOly-7" value="&lt;font style=&quot;font-size:15px;font-family:Microsoft YaHei;color:#000000;direction:ltr;letter-spacing:0px;line-height:120%;opacity:1&quot;&gt;系统服务&lt;br/&gt;&lt;/font&gt;" style="verticalAlign=middle;align=center;vsdxID=12;fillColor=#ffffff;gradientColor=none;shape=stencil(nZBLDoAgDERP0z3SIyjew0SURgSD+Lu9kMZoXLhwN9O+tukAlrNpJg1SzDH4QW/URgNYgZTkjA4UkwJUgGXng+6DX1zLfmoymdXo17xh5zmRJ6Q42BWCfc2oJfdAr+Yv+AP9Cb7OJ3H/2JG1HNGz/84klThPVCc=);strokeColor=#262626;labelBackgroundColor=none;rounded=0;html=1;whiteSpace=wrap;" vertex="1" parent="67REWQIAH_ysqliAc44E-1">
          <mxGeometry x="28" y="453" width="103" height="34" as="geometry"/>
        </mxCell>
        <mxCell id="RzbE2ylmn-Bbew9sLOly-8" value="&lt;font style=&quot;font-size:15px;font-family:Microsoft YaHei;color:#000000;direction:ltr;letter-spacing:0px;line-height:120%;opacity:1&quot;&gt;中间件&lt;br/&gt;&lt;/font&gt;" style="verticalAlign=middle;align=center;vsdxID=13;fillColor=#ffffff;gradientColor=none;shape=stencil(nZBLDoAgDERP0z3SIyjew0SURgSD+Lu9kMZoXLhwN9O+tukAlrNpJg1SzDH4QW/URgNYgZTkjA4UkwJUgGXng+6DX1zLfmoymdXo17xh5zmRJ6Q42BWCfc2oJfdAr+Yv+AP9Cb7OJ3H/2JG1HNGz/84klThPVCc=);strokeColor=#262626;labelBackgroundColor=none;rounded=0;html=1;whiteSpace=wrap;" vertex="1" parent="67REWQIAH_ysqliAc44E-1">
          <mxGeometry x="148" y="453" width="103" height="34" as="geometry"/>
        </mxCell>
        <mxCell id="RzbE2ylmn-Bbew9sLOly-9" value="&lt;font style=&quot;font-size:15px;font-family:Microsoft YaHei;color:#000000;direction:ltr;letter-spacing:0px;line-height:120%;opacity:1&quot;&gt;数据库&lt;br/&gt;&lt;/font&gt;" style="verticalAlign=middle;align=center;vsdxID=14;fillColor=#ffffff;gradientColor=none;shape=stencil(nZBLDoAgDERP0z3SIyjew0SURgSD+Lu9kMZoXLhwN9O+tukAlrNpJg1SzDH4QW/URgNYgZTkjA4UkwJUgGXng+6DX1zLfmoymdXo17xh5zmRJ6Q42BWCfc2oJfdAr+Yv+AP9Cb7OJ3H/2JG1HNGz/84klThPVCc=);strokeColor=#262626;labelBackgroundColor=none;rounded=0;html=1;whiteSpace=wrap;" vertex="1" parent="67REWQIAH_ysqliAc44E-1">
          <mxGeometry x="268" y="453" width="103" height="34" as="geometry"/>
        </mxCell>
        <mxCell id="RzbE2ylmn-Bbew9sLOly-10" value="&lt;font style=&quot;font-size:15px;font-family:Microsoft YaHei;color:#000000;direction:ltr;letter-spacing:0px;line-height:120%;opacity:1&quot;&gt;网络协议&lt;br/&gt;&lt;/font&gt;" style="verticalAlign=middle;align=center;vsdxID=15;fillColor=#ffffff;gradientColor=none;shape=stencil(nZBLDoAgDERP0z3SIyjew0SURgSD+Lu9kMZoXLhwN9O+tukAlrNpJg1SzDH4QW/URgNYgZTkjA4UkwJUgGXng+6DX1zLfmoymdXo17xh5zmRJ6Q42BWCfc2oJfdAr+Yv+AP9Cb7OJ3H/2JG1HNGz/84klThPVCc=);strokeColor=#262626;labelBackgroundColor=none;rounded=0;html=1;whiteSpace=wrap;" vertex="1" parent="67REWQIAH_ysqliAc44E-1">
          <mxGeometry x="388" y="453" width="103" height="34" as="geometry"/>
        </mxCell>
        <mxCell id="RzbE2ylmn-Bbew9sLOly-11" style="vsdxID=17;edgeStyle=none;startArrow=none;endArrow=classic;startSize=5;endSize=5;spacingTop=0;spacingBottom=0;spacingLeft=0;spacingRight=0;verticalAlign=middle;html=1;labelBackgroundColor=#ffffff;rounded=0;" edge="1" parent="67REWQIAH_ysqliAc44E-1">
          <mxGeometry relative="1" as="geometry">
            <Array as="points"/>
            <mxPoint x="92" y="487" as="sourcePoint"/>
            <mxPoint x="124" y="511" as="targetPoint"/>
          </mxGeometry>
        </mxCell>
        <mxCell id="RzbE2ylmn-Bbew9sLOly-12" value="&lt;font style=&quot;font-size:16px;font-family:SimSun;color:#000000;direction:ltr;letter-spacing:0px;line-height:120%;opacity:1&quot;&gt;设备服务配置信息&lt;br/&gt;&lt;/font&gt;" style="verticalAlign=middle;align=center;vsdxID=16;fillColor=#ffffff;gradientColor=none;shape=stencil(vZPBcoMgEIafhqMMLjORnNP0PZgGlQkVZ6WNfftgVtsooT01t2X3Z5dv9WfyMLS6NwzEENCfzcWeQsvkCwOwXWvQhhgxeWTyUHs0DfqP7kTnXk/KKXr3n1OHke7tFYdqugXiizKlELfzK8k1vsUazvKSq5LUuMgVF4pS47rB0lABr2BWFHq0Q4E+6GB9R/VZ7TQ2pojjitrpZlUaLsb0SXp+oLOdyQ8vKw7qN57dBme3xUk3JJ4Gwyv5YHKGZNFigr70y63mCSi5XyLHohIWBSuWZDffX/7/Yf40TQx+DFdb58iv9/WtQWOKzC2PVw==);strokeColor=#262626;labelBackgroundColor=none;rounded=0;html=1;whiteSpace=wrap;" vertex="1" parent="67REWQIAH_ysqliAc44E-1">
          <mxGeometry x="28" y="511" width="463" height="46" as="geometry"/>
        </mxCell>
        <mxCell id="RzbE2ylmn-Bbew9sLOly-13" value="&lt;font style=&quot;font-size:15px;font-family:Microsoft YaHei;color:#000000;direction:ltr;letter-spacing:0px;line-height:120%;opacity:1&quot;&gt;漏洞库&lt;br/&gt;&lt;/font&gt;" style="verticalAlign=top;align=center;vsdxID=21;fillColor=#deebf6;gradientColor=none;shape=stencil(nZBLDoAgDERP0z3SIyjew0SURgSD+Lu9kMZoXLhwN9O+tukAlrNpJg1SzDH4QW/URgNYgZTkjA4UkwJUgGXng+6DX1zLfmoymdXo17xh5zmRJ6Q42BWCfc2oJfdAr+Yv+AP9Cb7OJ3H/2JG1HNGz/84klThPVCc=);dashed=1;strokeColor=#262626;labelBackgroundColor=none;rounded=0;html=1;whiteSpace=wrap;" vertex="1" parent="67REWQIAH_ysqliAc44E-1">
          <mxGeometry x="4" y="607" width="516" height="286" as="geometry"/>
        </mxCell>
        <mxCell id="RzbE2ylmn-Bbew9sLOly-14" value="&lt;font style=&quot;font-size:15px;font-family:Microsoft YaHei;color:#000000;direction:ltr;letter-spacing:0px;line-height:120%;opacity:1&quot;&gt;C/C++&lt;br/&gt;&lt;/font&gt;" style="verticalAlign=middle;align=center;vsdxID=22;fillColor=#ffffff;gradientColor=none;shape=stencil(nZBLDoAgDERP0z3SIyjew0SURgSD+Lu9kMZoXLhwN9O+tukAlrNpJg1SzDH4QW/URgNYgZTkjA4UkwJUgGXng+6DX1zLfmoymdXo17xh5zmRJ6Q42BWCfc2oJfdAr+Yv+AP9Cb7OJ3H/2JG1HNGz/84klThPVCc=);strokeColor=#262626;labelBackgroundColor=none;rounded=0;html=1;whiteSpace=wrap;" vertex="1" parent="67REWQIAH_ysqliAc44E-1">
          <mxGeometry x="28" y="831" width="103" height="34" as="geometry"/>
        </mxCell>
        <mxCell id="RzbE2ylmn-Bbew9sLOly-15" value="&lt;font style=&quot;font-size:15px;font-family:Microsoft YaHei;color:#000000;direction:ltr;letter-spacing:0px;line-height:120%;opacity:1&quot;&gt;Python&lt;br/&gt;&lt;/font&gt;" style="verticalAlign=middle;align=center;vsdxID=23;fillColor=#ffffff;gradientColor=none;shape=stencil(nZBLDoAgDERP0z3SIyjew0SURgSD+Lu9kMZoXLhwN9O+tukAlrNpJg1SzDH4QW/URgNYgZTkjA4UkwJUgGXng+6DX1zLfmoymdXo17xh5zmRJ6Q42BWCfc2oJfdAr+Yv+AP9Cb7OJ3H/2JG1HNGz/84klThPVCc=);strokeColor=#262626;labelBackgroundColor=none;rounded=0;html=1;whiteSpace=wrap;" vertex="1" parent="67REWQIAH_ysqliAc44E-1">
          <mxGeometry x="148" y="831" width="103" height="34" as="geometry"/>
        </mxCell>
        <mxCell id="RzbE2ylmn-Bbew9sLOly-16" value="&lt;font style=&quot;font-size:15px;font-family:Microsoft YaHei;color:#000000;direction:ltr;letter-spacing:0px;line-height:120%;opacity:1&quot;&gt;Java&lt;br/&gt;&lt;/font&gt;" style="verticalAlign=middle;align=center;vsdxID=24;fillColor=#ffffff;gradientColor=none;shape=stencil(nZBLDoAgDERP0z3SIyjew0SURgSD+Lu9kMZoXLhwN9O+tukAlrNpJg1SzDH4QW/URgNYgZTkjA4UkwJUgGXng+6DX1zLfmoymdXo17xh5zmRJ6Q42BWCfc2oJfdAr+Yv+AP9Cb7OJ3H/2JG1HNGz/84klThPVCc=);strokeColor=#262626;labelBackgroundColor=none;rounded=0;html=1;whiteSpace=wrap;" vertex="1" parent="67REWQIAH_ysqliAc44E-1">
          <mxGeometry x="268" y="831" width="103" height="34" as="geometry"/>
        </mxCell>
        <mxCell id="RzbE2ylmn-Bbew9sLOly-17" value="&lt;font style=&quot;font-size:15px;font-family:Microsoft YaHei;color:#000000;direction:ltr;letter-spacing:0px;line-height:120%;opacity:1&quot;&gt;JS&lt;br/&gt;&lt;/font&gt;" style="verticalAlign=middle;align=center;vsdxID=25;fillColor=#ffffff;gradientColor=none;shape=stencil(nZBLDoAgDERP0z3SIyjew0SURgSD+Lu9kMZoXLhwN9O+tukAlrNpJg1SzDH4QW/URgNYgZTkjA4UkwJUgGXng+6DX1zLfmoymdXo17xh5zmRJ6Q42BWCfc2oJfdAr+Yv+AP9Cb7OJ3H/2JG1HNGz/84klThPVCc=);strokeColor=#262626;labelBackgroundColor=none;rounded=0;html=1;whiteSpace=wrap;" vertex="1" parent="67REWQIAH_ysqliAc44E-1">
          <mxGeometry x="388" y="831" width="103" height="34" as="geometry"/>
        </mxCell>
        <mxCell id="RzbE2ylmn-Bbew9sLOly-18" value="&lt;font style=&quot;font-size:16px;font-family:SimSun;color:#000000;direction:ltr;letter-spacing:0px;line-height:120%;opacity:1&quot;&gt;POC&lt;br/&gt;&lt;/font&gt;" style="verticalAlign=middle;align=center;vsdxID=30;fillColor=#ffffff;gradientColor=none;shape=stencil(vZPBcoMgEIafhqMMLjORnNP0PZgGlQkVZ6WNfftgVtsooT01t2X3Z5dv9WfyMLS6NwzEENCfzcWeQsvkCwOwXWvQhhgxeWTyUHs0DfqP7kTnXk/KKXr3n1OHke7tFYdqugXiizKlELfzK8k1vsUazvKSq5LUuMgVF4pS47rB0lABr2BWFHq0Q4E+6GB9R/VZ7TQ2pojjitrpZlUaLsb0SXp+oLOdyQ8vKw7qN57dBme3xUk3JJ4Gwyv5YHKGZNFigr70y63mCSi5XyLHohIWBSuWZDffX/7/Yf40TQx+DFdb58iv9/WtQWOKzC2PVw==);strokeColor=#262626;labelBackgroundColor=none;rounded=0;html=1;whiteSpace=wrap;" vertex="1" parent="67REWQIAH_ysqliAc44E-1">
          <mxGeometry x="28" y="762" width="463" height="46" as="geometry"/>
        </mxCell>
        <mxCell id="RzbE2ylmn-Bbew9sLOly-19" value="&lt;font style=&quot;font-size:16px;font-family:SimSun;color:#000000;direction:ltr;letter-spacing:0px;line-height:120%;opacity:1&quot;&gt;漏洞库&lt;br/&gt;&lt;/font&gt;" style="verticalAlign=middle;align=center;vsdxID=31;fillColor=#ffffff;gradientColor=none;shape=stencil(vZPBcoMgEIafhqMMLjORnNP0PZgGlQkVZ6WNfftgVtsooT01t2X3Z5dv9WfyMLS6NwzEENCfzcWeQsvkCwOwXWvQhhgxeWTyUHs0DfqP7kTnXk/KKXr3n1OHke7tFYdqugXiizKlELfzK8k1vsUazvKSq5LUuMgVF4pS47rB0lABr2BWFHq0Q4E+6GB9R/VZ7TQ2pojjitrpZlUaLsb0SXp+oLOdyQ8vKw7qN57dBme3xUk3JJ4Gwyv5YHKGZNFigr70y63mCSi5XyLHohIWBSuWZDffX/7/Yf40TQx+DFdb58iv9/WtQWOKzC2PVw==);strokeColor=#262626;labelBackgroundColor=none;rounded=0;html=1;whiteSpace=wrap;" vertex="1" parent="67REWQIAH_ysqliAc44E-1">
          <mxGeometry x="28" y="703" width="463" height="46" as="geometry"/>
        </mxCell>
        <mxCell id="RzbE2ylmn-Bbew9sLOly-20" value="&lt;font style=&quot;font-size:15px;font-family:Microsoft YaHei;color:#000000;direction:ltr;letter-spacing:0px;line-height:120%;opacity:1&quot;&gt;漏洞描述&lt;br/&gt;&lt;/font&gt;" style="verticalAlign=middle;align=center;vsdxID=32;fillColor=#ffffff;gradientColor=none;shape=stencil(nZBLDoAgDERP0z3SIyjew0SURgSD+Lu9kMZoXLhwN9O+tukAlrNpJg1SzDH4QW/URgNYgZTkjA4UkwJUgGXng+6DX1zLfmoymdXo17xh5zmRJ6Q42BWCfc2oJfdAr+Yv+AP9Cb7OJ3H/2JG1HNGz/84klThPVCc=);strokeColor=#262626;labelBackgroundColor=none;rounded=0;html=1;whiteSpace=wrap;" vertex="1" parent="67REWQIAH_ysqliAc44E-1">
          <mxGeometry x="29" y="645" width="103" height="34" as="geometry"/>
        </mxCell>
        <mxCell id="RzbE2ylmn-Bbew9sLOly-21" value="&lt;font style=&quot;font-size:15px;font-family:Microsoft YaHei;color:#000000;direction:ltr;letter-spacing:0px;line-height:120%;opacity:1&quot;&gt;关联ID&lt;br/&gt;&lt;/font&gt;" style="verticalAlign=middle;align=center;vsdxID=33;fillColor=#ffffff;gradientColor=none;shape=stencil(nZBLDoAgDERP0z3SIyjew0SURgSD+Lu9kMZoXLhwN9O+tukAlrNpJg1SzDH4QW/URgNYgZTkjA4UkwJUgGXng+6DX1zLfmoymdXo17xh5zmRJ6Q42BWCfc2oJfdAr+Yv+AP9Cb7OJ3H/2JG1HNGz/84klThPVCc=);strokeColor=#262626;labelBackgroundColor=none;rounded=0;html=1;whiteSpace=wrap;" vertex="1" parent="67REWQIAH_ysqliAc44E-1">
          <mxGeometry x="149" y="645" width="103" height="34" as="geometry"/>
        </mxCell>
        <mxCell id="RzbE2ylmn-Bbew9sLOly-22" style="vsdxID=36;edgeStyle=none;startArrow=none;endArrow=classic;startSize=5;endSize=5;spacingTop=0;spacingBottom=0;spacingLeft=0;spacingRight=0;verticalAlign=middle;html=1;labelBackgroundColor=#ffffff;rounded=0;" edge="1" parent="67REWQIAH_ysqliAc44E-1">
          <mxGeometry relative="1" as="geometry">
            <Array as="points"/>
            <mxPoint x="92" y="679" as="sourcePoint"/>
            <mxPoint x="124" y="703" as="targetPoint"/>
          </mxGeometry>
        </mxCell>
        <mxCell id="RzbE2ylmn-Bbew9sLOly-23" value="&lt;font style=&quot;font-size:15px;font-family:Microsoft YaHei;color:#000000;direction:ltr;letter-spacing:0px;line-height:120%;opacity:1&quot;&gt;发布信息&lt;br/&gt;&lt;/font&gt;" style="verticalAlign=middle;align=center;vsdxID=34;fillColor=#ffffff;gradientColor=none;shape=stencil(nZBLDoAgDERP0z3SIyjew0SURgSD+Lu9kMZoXLhwN9O+tukAlrNpJg1SzDH4QW/URgNYgZTkjA4UkwJUgGXng+6DX1zLfmoymdXo17xh5zmRJ6Q42BWCfc2oJfdAr+Yv+AP9Cb7OJ3H/2JG1HNGz/84klThPVCc=);strokeColor=#262626;labelBackgroundColor=none;rounded=0;html=1;whiteSpace=wrap;" vertex="1" parent="67REWQIAH_ysqliAc44E-1">
          <mxGeometry x="269" y="645" width="103" height="34" as="geometry"/>
        </mxCell>
        <mxCell id="RzbE2ylmn-Bbew9sLOly-24" value="&lt;font style=&quot;font-size:15px;font-family:Microsoft YaHei;color:#000000;direction:ltr;letter-spacing:0px;line-height:120%;opacity:1&quot;&gt;严重程度&lt;br/&gt;&lt;/font&gt;" style="verticalAlign=middle;align=center;vsdxID=35;fillColor=#ffffff;gradientColor=none;shape=stencil(nZBLDoAgDERP0z3SIyjew0SURgSD+Lu9kMZoXLhwN9O+tukAlrNpJg1SzDH4QW/URgNYgZTkjA4UkwJUgGXng+6DX1zLfmoymdXo17xh5zmRJ6Q42BWCfc2oJfdAr+Yv+AP9Cb7OJ3H/2JG1HNGz/84klThPVCc=);strokeColor=#262626;labelBackgroundColor=none;rounded=0;html=1;whiteSpace=wrap;" vertex="1" parent="67REWQIAH_ysqliAc44E-1">
          <mxGeometry x="388" y="645" width="103" height="34" as="geometry"/>
        </mxCell>
        <mxCell id="RzbE2ylmn-Bbew9sLOly-25" value="&lt;font style=&quot;font-size:15px;font-family:Microsoft YaHei;color:#000000;direction:ltr;letter-spacing:0px;line-height:120%;opacity:1&quot;&gt;标靶漏洞缺陷分析&lt;br/&gt;&lt;/font&gt;" style="verticalAlign=top;align=center;vsdxID=40;fillColor=#e2efd9;gradientColor=none;shape=stencil(nZBLDoAgDERP0z3SIyjew0SURgSD+Lu9kMZoXLhwN9O+tukAlrNpJg1SzDH4QW/URgNYgZTkjA4UkwJUgGXng+6DX1zLfmoymdXo17xh5zmRJ6Q42BWCfc2oJfdAr+Yv+AP9Cb7OJ3H/2JG1HNGz/84klThPVCc=);dashed=1;strokeColor=#262626;labelBackgroundColor=none;rounded=0;html=1;whiteSpace=wrap;" vertex="1" parent="67REWQIAH_ysqliAc44E-1">
          <mxGeometry x="552" y="295" width="228" height="286" as="geometry"/>
        </mxCell>
        <mxCell id="RzbE2ylmn-Bbew9sLOly-26" value="&lt;font style=&quot;font-size:15px;font-family:Microsoft YaHei;color:#000000;direction:ltr;letter-spacing:0px;line-height:120%;opacity:1&quot;&gt;节点信息分析&lt;br/&gt;&lt;/font&gt;" style="verticalAlign=middle;align=center;vsdxID=44;fillColor=#ffffff;gradientColor=none;shape=stencil(nZBLDoAgDERP0z3SIyjew0SURgSD+Lu9kMZoXLhwN9O+tukAlrNpJg1SzDH4QW/URgNYgZTkjA4UkwJUgGXng+6DX1zLfmoymdXo17xh5zmRJ6Q42BWCfc2oJfdAr+Yv+AP9Cb7OJ3H/2JG1HNGz/84klThPVCc=);strokeColor=#262626;labelBackgroundColor=none;rounded=0;html=1;whiteSpace=wrap;" vertex="1" parent="67REWQIAH_ysqliAc44E-1">
          <mxGeometry x="588" y="331" width="119" height="34" as="geometry"/>
        </mxCell>
        <mxCell id="RzbE2ylmn-Bbew9sLOly-27" value="&lt;font style=&quot;font-size:15px;font-family:Microsoft YaHei;color:#000000;direction:ltr;letter-spacing:0px;line-height:120%;opacity:1&quot;&gt;节点服务信息采集归纳&lt;br/&gt;&lt;/font&gt;" style="verticalAlign=middle;align=center;vsdxID=45;fillColor=#ffffff;gradientColor=none;shape=stencil(nZBLDoAgDERP0z3SIyjew0SURgSD+Lu9kMZoXLhwN9O+tukAlrNpJg1SzDH4QW/URgNYgZTkjA4UkwJUgGXng+6DX1zLfmoymdXo17xh5zmRJ6Q42BWCfc2oJfdAr+Yv+AP9Cb7OJ3H/2JG1HNGz/84klThPVCc=);strokeColor=#262626;labelBackgroundColor=none;rounded=0;html=1;whiteSpace=wrap;" vertex="1" parent="67REWQIAH_ysqliAc44E-1">
          <mxGeometry x="588" y="389" width="119" height="49" as="geometry"/>
        </mxCell>
        <mxCell id="RzbE2ylmn-Bbew9sLOly-28" value="&lt;font style=&quot;font-size:15px;font-family:Microsoft YaHei;color:#000000;direction:ltr;letter-spacing:0px;line-height:120%;opacity:1&quot;&gt;漏洞信息采集&lt;br/&gt;&lt;/font&gt;" style="verticalAlign=middle;align=center;vsdxID=46;fillColor=#ffffff;gradientColor=none;shape=stencil(nZBLDoAgDERP0z3SIyjew0SURgSD+Lu9kMZoXLhwN9O+tukAlrNpJg1SzDH4QW/URgNYgZTkjA4UkwJUgGXng+6DX1zLfmoymdXo17xh5zmRJ6Q42BWCfc2oJfdAr+Yv+AP9Cb7OJ3H/2JG1HNGz/84klThPVCc=);strokeColor=#262626;labelBackgroundColor=none;rounded=0;html=1;whiteSpace=wrap;" vertex="1" parent="67REWQIAH_ysqliAc44E-1">
          <mxGeometry x="588" y="452" width="119" height="49" as="geometry"/>
        </mxCell>
        <mxCell id="RzbE2ylmn-Bbew9sLOly-29" value="&lt;font style=&quot;font-size:16px;font-family:SimSun;color:#000000;direction:ltr;letter-spacing:0px;line-height:120%;opacity:1&quot;&gt;漏洞缺陷匹配&lt;br/&gt;&lt;/font&gt;" style="verticalAlign=middle;align=center;vsdxID=47;fillColor=#ffffff;gradientColor=none;shape=stencil(vZPRdoMgDIafhks5FETsdde9B6dF5YyJJ7LVvX1x0bXq6K7Wu5D8SfgCIeLQN7ozhLM+gH8zF3sODREvhHPbNgZsiBYRRyIOlQdTg/9oz3ju9KgcrXf/OVYYMG+f07wYszj7Qs+Ose/zK8o1nGIMJrmkBUc1zHJFpUDXsCwwFyw5VVPSkOnB9hn4oIP1LcYntdNQmyy2yyqn60WovxjTbdzTBZ1tTbp5vB4vH/GI3YqnoFIteLYjYs+ikVTmv3ROoMxa2LDP9VKzeQJK6k8kWNT6WRQt+YJlM5ufp/9/mD+3Jhq3jausc7iw9/H1hkYXbrc4XgE=);strokeColor=#262626;labelBackgroundColor=none;rounded=0;html=1;whiteSpace=wrap;" vertex="1" parent="67REWQIAH_ysqliAc44E-1">
          <mxGeometry x="576" y="525" width="144" height="46" as="geometry"/>
        </mxCell>
        <mxCell id="RzbE2ylmn-Bbew9sLOly-30" value="&lt;font style=&quot;font-size:15px;font-family:Microsoft YaHei;color:#000000;direction:ltr;letter-spacing:0px;line-height:120%;opacity:1&quot;&gt;系统日志&lt;br/&gt;&lt;/font&gt;" style="verticalAlign=top;align=center;vsdxID=52;fillColor=#fff2cc;gradientColor=none;shape=stencil(nZBLDoAgDERP0z3SIyjew0SURgSD+Lu9kMZoXLhwN9O+tukAlrNpJg1SzDH4QW/URgNYgZTkjA4UkwJUgGXng+6DX1zLfmoymdXo17xh5zmRJ6Q42BWCfc2oJfdAr+Yv+AP9Cb7OJ3H/2JG1HNGz/84klThPVCc=);dashed=1;strokeColor=#262626;labelBackgroundColor=none;rounded=0;html=1;whiteSpace=wrap;" vertex="1" parent="67REWQIAH_ysqliAc44E-1">
          <mxGeometry x="552" y="605" width="228" height="286" as="geometry"/>
        </mxCell>
        <mxCell id="RzbE2ylmn-Bbew9sLOly-31" value="&lt;font style=&quot;font-size:15px;font-family:Microsoft YaHei;color:#000000;direction:ltr;letter-spacing:0px;line-height:120%;opacity:1&quot;&gt;标靶历史信息&lt;br/&gt;&lt;/font&gt;" style="verticalAlign=middle;align=center;vsdxID=53;fillColor=#ffffff;gradientColor=none;shape=stencil(nZBLDoAgDERP0z3SIyjew0SURgSD+Lu9kMZoXLhwN9O+tukAlrNpJg1SzDH4QW/URgNYgZTkjA4UkwJUgGXng+6DX1zLfmoymdXo17xh5zmRJ6Q42BWCfc2oJfdAr+Yv+AP9Cb7OJ3H/2JG1HNGz/84klThPVCc=);strokeColor=#262626;labelBackgroundColor=none;rounded=0;html=1;whiteSpace=wrap;" vertex="1" parent="67REWQIAH_ysqliAc44E-1">
          <mxGeometry x="604" y="645" width="119" height="46" as="geometry"/>
        </mxCell>
        <mxCell id="RzbE2ylmn-Bbew9sLOly-32" value="&lt;font style=&quot;font-size:15px;font-family:Microsoft YaHei;color:#000000;direction:ltr;letter-spacing:0px;line-height:120%;opacity:1&quot;&gt;安全日志&lt;br/&gt;&lt;/font&gt;" style="verticalAlign=middle;align=center;vsdxID=54;fillColor=#ffffff;gradientColor=none;shape=stencil(nZBLDoAgDERP0z3SIyjew0SURgSD+Lu9kMZoXLhwN9O+tukAlrNpJg1SzDH4QW/URgNYgZTkjA4UkwJUgGXng+6DX1zLfmoymdXo17xh5zmRJ6Q42BWCfc2oJfdAr+Yv+AP9Cb7OJ3H/2JG1HNGz/84klThPVCc=);strokeColor=#262626;labelBackgroundColor=none;rounded=0;html=1;whiteSpace=wrap;" vertex="1" parent="67REWQIAH_ysqliAc44E-1">
          <mxGeometry x="604" y="703" width="119" height="49" as="geometry"/>
        </mxCell>
        <mxCell id="RzbE2ylmn-Bbew9sLOly-33" value="&lt;font style=&quot;font-size:15px;font-family:Microsoft YaHei;color:#000000;direction:ltr;letter-spacing:0px;line-height:120%;opacity:1&quot;&gt;操作日志&lt;br/&gt;&lt;/font&gt;" style="verticalAlign=middle;align=center;vsdxID=55;fillColor=#ffffff;gradientColor=none;shape=stencil(nZBLDoAgDERP0z3SIyjew0SURgSD+Lu9kMZoXLhwN9O+tukAlrNpJg1SzDH4QW/URgNYgZTkjA4UkwJUgGXng+6DX1zLfmoymdXo17xh5zmRJ6Q42BWCfc2oJfdAr+Yv+AP9Cb7OJ3H/2JG1HNGz/84klThPVCc=);strokeColor=#262626;labelBackgroundColor=none;rounded=0;html=1;whiteSpace=wrap;" vertex="1" parent="67REWQIAH_ysqliAc44E-1">
          <mxGeometry x="604" y="766" width="119" height="49" as="geometry"/>
        </mxCell>
        <mxCell id="RzbE2ylmn-Bbew9sLOly-34" value="&lt;p style=&quot;align:center;margin-left:0;margin-right:0;margin-top:0px;margin-bottom:0px;text-indent:0;valign:middle;direction:ltr;&quot;&gt;&lt;font style=&quot;font-size:16px;font-family:SimSun;color:#000000;direction:ltr;letter-spacing:0px;line-height:120%;opacity:1&quot;&gt;错误日志&lt;/font&gt;&lt;font style=&quot;font-size:15px;font-family:Microsoft YaHei;color:#000000;direction:ltr;letter-spacing:0px;line-height:120%;opacity:1&quot;&gt;&lt;br/&gt;&lt;/font&gt;&lt;/p&gt;" style="verticalAlign=middle;align=center;vsdxID=56;fillColor=#ffffff;gradientColor=none;shape=stencil(nZBLDoAgDERP0z3SIyjew0SURgSD+Lu9kMZoXLhwN9O+tukAlrNpJg1SzDH4QW/URgNYgZTkjA4UkwJUgGXng+6DX1zLfmoymdXo17xh5zmRJ6Q42BWCfc2oJfdAr+Yv+AP9Cb7OJ3H/2JG1HNGz/84klThPVCc=);strokeColor=#262626;labelBackgroundColor=none;rounded=0;html=1;whiteSpace=wrap;" vertex="1" parent="67REWQIAH_ysqliAc44E-1">
          <mxGeometry x="604" y="828" width="119" height="49" as="geometry"/>
        </mxCell>
        <mxCell id="RzbE2ylmn-Bbew9sLOly-35" style="vsdxID=57;fillColor=#FFFFFF;gradientColor=none;shape=stencil(rZLNDoMgDMefhqMGQZNxdu49yEQlY2AKm+7tB8FsaOZ22a0fv9L+aRGt7cBHgQi2DsxFTLJ1A6JHRIjUgwDpvIVog2jdGRA9mJtuoz/yQAbrau7hhTnW4VBB8CP1ThFUUu+CVU6rlOVw9klYWMZydog8LAVl9QotUIE3TxY5LRci47O0GRjHnTR6NYDi0IvM98s6xftVyk5CjEm42FezbR7GY98FsV+CPn3lv6SsFuON9zo7qVS8hjS/Xb8PxdOhzRM=);labelBackgroundColor=none;rounded=0;html=1;whiteSpace=wrap;" vertex="1" parent="67REWQIAH_ysqliAc44E-1">
          <mxGeometry x="772" y="417" width="64" height="374" as="geometry"/>
        </mxCell>
        <mxCell id="RzbE2ylmn-Bbew9sLOly-36" style="vsdxID=58;fillColor=#e4e4e4;gradientColor=none;shape=stencil(rZLdEoIgEIWfhksZYbXkup/3YAqVicRZ6e/tg9BJy5mmqbtl93zAgUNg1dWyVYSnnUN7UBe9dzWBNeFcN7VC7XxFYENgVVpUFdpTs4/rVgZlqI72HHa4Ri4NBE9vcSUyusgfnW0UG92MxMAozydAISiwbwDBqCjGgMSdn2IPLAq6zCKAPZHlAzHsytLprYNC9IpEXnWXoHXSadtMPBqJlUr8eUlpZDUZdRel2rf2rKXXw3NGIfvR0MwzLSnAXy199UuDyVn5h8j44hm2UhsTszqev4bTt2KwYXMH);strokeColor=#000000;labelBackgroundColor=none;rounded=0;html=1;whiteSpace=wrap;" vertex="1" parent="RzbE2ylmn-Bbew9sLOly-35">
          <mxGeometry width="64" height="374" as="geometry"/>
        </mxCell>
        <mxCell id="RzbE2ylmn-Bbew9sLOly-37" style="vsdxID=51;edgeStyle=none;startArrow=none;endArrow=classic;startSize=9;endSize=9;spacingTop=0;spacingBottom=0;spacingLeft=0;spacingRight=0;verticalAlign=middle;html=1;labelBackgroundColor=#ffffff;rounded=0;exitX=0.5042016806722689;exitY=1;exitDx=0;exitDy=0;exitPerimeter=0;entryX=0.5;entryY=0;entryDx=0;entryDy=0;entryPerimeter=0;" edge="1" parent="67REWQIAH_ysqliAc44E-1" source="RzbE2ylmn-Bbew9sLOly-28" target="RzbE2ylmn-Bbew9sLOly-29">
          <mxGeometry relative="1" as="geometry">
            <mxPoint x="-10" y="-1" as="offset"/>
            <Array as="points">
              <mxPoint x="648" y="508.5"/>
              <mxPoint x="647.64" y="508.5"/>
            </Array>
          </mxGeometry>
        </mxCell>
        <mxCell id="RzbE2ylmn-Bbew9sLOly-38" style="vsdxID=50;edgeStyle=none;startArrow=none;endArrow=classic;startSize=9;endSize=9;spacingTop=0;spacingBottom=0;spacingLeft=0;spacingRight=0;verticalAlign=middle;html=1;labelBackgroundColor=#ffffff;rounded=0;exitX=1.0084033613445378;exitY=0.4897959183673469;exitDx=0;exitDy=0;exitPerimeter=0;entryX=1;entryY=0.5;entryDx=0;entryDy=0;entryPerimeter=0;" edge="1" parent="67REWQIAH_ysqliAc44E-1" source="RzbE2ylmn-Bbew9sLOly-27" target="RzbE2ylmn-Bbew9sLOly-29">
          <mxGeometry relative="1" as="geometry">
            <mxPoint x="4" as="offset"/>
            <Array as="points">
              <mxPoint x="735" y="413"/>
              <mxPoint x="735" y="547.64"/>
            </Array>
          </mxGeometry>
        </mxCell>
        <mxCell id="RzbE2ylmn-Bbew9sLOly-39" style="vsdxID=49;edgeStyle=none;startArrow=none;endArrow=classic;startSize=9;endSize=9;spacingTop=0;spacingBottom=0;spacingLeft=0;spacingRight=0;verticalAlign=middle;html=1;labelBackgroundColor=#ffffff;rounded=0;exitX=1.0084033613445378;exitY=0.5;exitDx=0;exitDy=0;exitPerimeter=0;entryX=1;entryY=0.5;entryDx=0;entryDy=0;entryPerimeter=0;" edge="1" parent="67REWQIAH_ysqliAc44E-1" source="RzbE2ylmn-Bbew9sLOly-26" target="RzbE2ylmn-Bbew9sLOly-29">
          <mxGeometry relative="1" as="geometry">
            <mxPoint x="4" as="offset"/>
            <Array as="points">
              <mxPoint x="735" y="348"/>
              <mxPoint x="735" y="548.3"/>
            </Array>
          </mxGeometry>
        </mxCell>
        <mxCell id="RzbE2ylmn-Bbew9sLOly-40" style="vsdxID=48;edgeStyle=none;startArrow=none;endArrow=classic;startSize=9;endSize=9;spacingTop=0;spacingBottom=0;spacingLeft=0;spacingRight=0;verticalAlign=middle;html=1;labelBackgroundColor=#ffffff;rounded=0;exitX=1.0021598272138228;exitY=0.5;exitDx=0;exitDy=0;exitPerimeter=0;entryX=0;entryY=0.4897959183673469;entryDx=0;entryDy=0;entryPerimeter=0;" edge="1" parent="67REWQIAH_ysqliAc44E-1" source="RzbE2ylmn-Bbew9sLOly-12" target="RzbE2ylmn-Bbew9sLOly-27">
          <mxGeometry relative="1" as="geometry">
            <mxPoint x="-1" as="offset"/>
            <Array as="points">
              <mxPoint x="507" y="534"/>
              <mxPoint x="507" y="460.84"/>
              <mxPoint x="568.11" y="460.84"/>
              <mxPoint x="568.11" y="413.34"/>
            </Array>
          </mxGeometry>
        </mxCell>
        <mxCell id="RzbE2ylmn-Bbew9sLOly-41" style="vsdxID=43;edgeStyle=none;startArrow=none;endArrow=classic;startSize=9;endSize=9;spacingTop=0;spacingBottom=0;spacingLeft=0;spacingRight=0;verticalAlign=middle;html=1;labelBackgroundColor=#ffffff;rounded=0;exitX=1.0021598272138228;exitY=0.5;exitDx=0;exitDy=0;exitPerimeter=0;entryX=0;entryY=0.5102040816326531;entryDx=0;entryDy=0;entryPerimeter=0;" edge="1" parent="67REWQIAH_ysqliAc44E-1" source="RzbE2ylmn-Bbew9sLOly-18" target="RzbE2ylmn-Bbew9sLOly-28">
          <mxGeometry relative="1" as="geometry">
            <mxPoint y="-1" as="offset"/>
            <Array as="points">
              <mxPoint x="530.96" y="785"/>
              <mxPoint x="530.96" y="477"/>
            </Array>
          </mxGeometry>
        </mxCell>
        <mxCell id="RzbE2ylmn-Bbew9sLOly-42" style="vsdxID=42;edgeStyle=none;startArrow=none;endArrow=classic;startSize=9;endSize=9;spacingTop=0;spacingBottom=0;spacingLeft=0;spacingRight=0;verticalAlign=middle;html=1;labelBackgroundColor=#ffffff;rounded=0;exitX=1.0021598272138228;exitY=0.5;exitDx=0;exitDy=0;exitPerimeter=0;entryX=0;entryY=0.5102040816326531;entryDx=0;entryDy=0;entryPerimeter=0;" edge="1" parent="67REWQIAH_ysqliAc44E-1" source="RzbE2ylmn-Bbew9sLOly-19" target="RzbE2ylmn-Bbew9sLOly-28">
          <mxGeometry relative="1" as="geometry">
            <mxPoint as="offset"/>
            <Array as="points">
              <mxPoint x="530.96" y="726"/>
              <mxPoint x="530.96" y="477.14"/>
            </Array>
          </mxGeometry>
        </mxCell>
        <mxCell id="RzbE2ylmn-Bbew9sLOly-43" style="vsdxID=41;edgeStyle=none;startArrow=none;endArrow=classic;startSize=9;endSize=9;spacingTop=0;spacingBottom=0;spacingLeft=0;spacingRight=0;verticalAlign=middle;html=1;labelBackgroundColor=#ffffff;rounded=0;exitX=1.0021598272138228;exitY=0.5;exitDx=0;exitDy=0;exitPerimeter=0;entryX=0;entryY=0.5;entryDx=0;entryDy=0;entryPerimeter=0;" edge="1" parent="67REWQIAH_ysqliAc44E-1" source="RzbE2ylmn-Bbew9sLOly-5" target="RzbE2ylmn-Bbew9sLOly-26">
          <mxGeometry relative="1" as="geometry">
            <mxPoint as="offset"/>
            <Array as="points">
              <mxPoint x="507" y="412"/>
              <mxPoint x="507" y="347.7"/>
            </Array>
          </mxGeometry>
        </mxCell>
        <mxCell id="RzbE2ylmn-Bbew9sLOly-44" vertex="1" parent="67REWQIAH_ysqliAc44E-1">
          <mxGeometry x="400" y="703" as="geometry"/>
        </mxCell>
        <mxCell id="RzbE2ylmn-Bbew9sLOly-45" style="vsdxID=39;edgeStyle=none;startArrow=none;endArrow=classic;startSize=5;endSize=5;spacingTop=0;spacingBottom=0;spacingLeft=0;spacingRight=0;verticalAlign=middle;html=1;labelBackgroundColor=#ffffff;rounded=0;" edge="1" parent="67REWQIAH_ysqliAc44E-1" source="RzbE2ylmn-Bbew9sLOly-24" target="RzbE2ylmn-Bbew9sLOly-44">
          <mxGeometry relative="1" as="geometry">
            <Array as="points">
              <mxPoint x="440" y="679"/>
              <mxPoint x="400.16" y="703"/>
            </Array>
          </mxGeometry>
        </mxCell>
        <mxCell id="RzbE2ylmn-Bbew9sLOly-46" vertex="1" parent="67REWQIAH_ysqliAc44E-1">
          <mxGeometry x="300" y="703" as="geometry"/>
        </mxCell>
        <mxCell id="RzbE2ylmn-Bbew9sLOly-47" style="vsdxID=38;edgeStyle=none;startArrow=none;endArrow=classic;startSize=5;endSize=5;spacingTop=0;spacingBottom=0;spacingLeft=0;spacingRight=0;verticalAlign=middle;html=1;labelBackgroundColor=#ffffff;rounded=0;" edge="1" parent="67REWQIAH_ysqliAc44E-1" source="RzbE2ylmn-Bbew9sLOly-23" target="RzbE2ylmn-Bbew9sLOly-46">
          <mxGeometry relative="1" as="geometry">
            <Array as="points">
              <mxPoint x="320" y="679"/>
              <mxPoint x="299.84" y="703"/>
            </Array>
          </mxGeometry>
        </mxCell>
        <mxCell id="RzbE2ylmn-Bbew9sLOly-48" vertex="1" parent="67REWQIAH_ysqliAc44E-1">
          <mxGeometry x="212" y="703" as="geometry"/>
        </mxCell>
        <mxCell id="RzbE2ylmn-Bbew9sLOly-49" style="vsdxID=37;edgeStyle=none;startArrow=none;endArrow=classic;startSize=5;endSize=5;spacingTop=0;spacingBottom=0;spacingLeft=0;spacingRight=0;verticalAlign=middle;html=1;labelBackgroundColor=#ffffff;rounded=0;" edge="1" parent="67REWQIAH_ysqliAc44E-1" source="RzbE2ylmn-Bbew9sLOly-21" target="RzbE2ylmn-Bbew9sLOly-48">
          <mxGeometry relative="1" as="geometry">
            <Array as="points">
              <mxPoint x="200" y="679"/>
              <mxPoint x="211.84" y="703"/>
            </Array>
          </mxGeometry>
        </mxCell>
        <mxCell id="RzbE2ylmn-Bbew9sLOly-50" vertex="1" parent="67REWQIAH_ysqliAc44E-1">
          <mxGeometry x="395" y="809" as="geometry"/>
        </mxCell>
        <mxCell id="RzbE2ylmn-Bbew9sLOly-51" style="vsdxID=29;edgeStyle=none;startArrow=none;endArrow=classic;startSize=5;endSize=5;spacingTop=0;spacingBottom=0;spacingLeft=0;spacingRight=0;verticalAlign=middle;html=1;labelBackgroundColor=#ffffff;rounded=0;" edge="1" parent="67REWQIAH_ysqliAc44E-1" source="RzbE2ylmn-Bbew9sLOly-17" target="RzbE2ylmn-Bbew9sLOly-50">
          <mxGeometry relative="1" as="geometry">
            <Array as="points">
              <mxPoint x="439" y="831"/>
              <mxPoint x="394.84" y="809.62"/>
            </Array>
          </mxGeometry>
        </mxCell>
        <mxCell id="RzbE2ylmn-Bbew9sLOly-52" vertex="1" parent="67REWQIAH_ysqliAc44E-1">
          <mxGeometry x="299" y="809" as="geometry"/>
        </mxCell>
        <mxCell id="RzbE2ylmn-Bbew9sLOly-53" style="vsdxID=28;edgeStyle=none;startArrow=none;endArrow=classic;startSize=5;endSize=5;spacingTop=0;spacingBottom=0;spacingLeft=0;spacingRight=0;verticalAlign=middle;html=1;labelBackgroundColor=#ffffff;rounded=0;" edge="1" parent="67REWQIAH_ysqliAc44E-1" source="RzbE2ylmn-Bbew9sLOly-16" target="RzbE2ylmn-Bbew9sLOly-52">
          <mxGeometry relative="1" as="geometry">
            <Array as="points">
              <mxPoint x="320" y="831"/>
              <mxPoint x="299.53" y="809.62"/>
            </Array>
          </mxGeometry>
        </mxCell>
        <mxCell id="RzbE2ylmn-Bbew9sLOly-54" vertex="1" parent="67REWQIAH_ysqliAc44E-1">
          <mxGeometry x="211" y="809" as="geometry"/>
        </mxCell>
        <mxCell id="RzbE2ylmn-Bbew9sLOly-55" style="vsdxID=27;edgeStyle=none;startArrow=none;endArrow=classic;startSize=5;endSize=5;spacingTop=0;spacingBottom=0;spacingLeft=0;spacingRight=0;verticalAlign=middle;html=1;labelBackgroundColor=#ffffff;rounded=0;" edge="1" parent="67REWQIAH_ysqliAc44E-1" source="RzbE2ylmn-Bbew9sLOly-15" target="RzbE2ylmn-Bbew9sLOly-54">
          <mxGeometry relative="1" as="geometry">
            <Array as="points">
              <mxPoint x="200" y="831"/>
              <mxPoint x="211.53" y="809.62"/>
            </Array>
          </mxGeometry>
        </mxCell>
        <mxCell id="RzbE2ylmn-Bbew9sLOly-56" style="vsdxID=7;edgeStyle=none;startArrow=none;endArrow=none;startSize=9;endSize=9;spacingTop=0;spacingBottom=0;spacingLeft=0;spacingRight=0;verticalAlign=middle;html=1;labelBackgroundColor=#ffffff;rounded=0;exitX=0.5;exitY=1;exitDx=0;exitDy=0;exitPerimeter=0;entryX=0.5;entryY=1;entryDx=0;entryDy=0;entryPerimeter=0;" edge="1" parent="67REWQIAH_ysqliAc44E-1" source="RzbE2ylmn-Bbew9sLOly-0" target="RzbE2ylmn-Bbew9sLOly-0">
          <mxGeometry relative="1" as="geometry">
            <mxPoint x="10" y="-10" as="offset"/>
            <Array as="points">
              <mxPoint x="262" y="591"/>
              <mxPoint x="262" y="591"/>
            </Array>
          </mxGeometry>
        </mxCell>
        <mxCell id="RzbE2ylmn-Bbew9sLOly-57" vertex="1" parent="67REWQIAH_ysqliAc44E-1">
          <mxGeometry x="212" y="511" as="geometry"/>
        </mxCell>
        <mxCell id="RzbE2ylmn-Bbew9sLOly-58" style="vsdxID=18;edgeStyle=none;startArrow=none;endArrow=classic;startSize=5;endSize=5;spacingTop=0;spacingBottom=0;spacingLeft=0;spacingRight=0;verticalAlign=middle;html=1;labelBackgroundColor=#ffffff;rounded=0;" edge="1" parent="67REWQIAH_ysqliAc44E-1" source="RzbE2ylmn-Bbew9sLOly-8" target="RzbE2ylmn-Bbew9sLOly-57">
          <mxGeometry relative="1" as="geometry">
            <Array as="points">
              <mxPoint x="200" y="487"/>
              <mxPoint x="211.84" y="511"/>
            </Array>
          </mxGeometry>
        </mxCell>
        <mxCell id="RzbE2ylmn-Bbew9sLOly-59" vertex="1" parent="67REWQIAH_ysqliAc44E-1">
          <mxGeometry x="300" y="511" as="geometry"/>
        </mxCell>
        <mxCell id="RzbE2ylmn-Bbew9sLOly-60" style="vsdxID=19;edgeStyle=none;startArrow=none;endArrow=classic;startSize=5;endSize=5;spacingTop=0;spacingBottom=0;spacingLeft=0;spacingRight=0;verticalAlign=middle;html=1;labelBackgroundColor=#ffffff;rounded=0;" edge="1" parent="67REWQIAH_ysqliAc44E-1" source="RzbE2ylmn-Bbew9sLOly-9" target="RzbE2ylmn-Bbew9sLOly-59">
          <mxGeometry relative="1" as="geometry">
            <Array as="points">
              <mxPoint x="320" y="487"/>
              <mxPoint x="299.84" y="511"/>
            </Array>
          </mxGeometry>
        </mxCell>
        <mxCell id="RzbE2ylmn-Bbew9sLOly-61" vertex="1" parent="67REWQIAH_ysqliAc44E-1">
          <mxGeometry x="400" y="511" as="geometry"/>
        </mxCell>
        <mxCell id="RzbE2ylmn-Bbew9sLOly-62" style="vsdxID=20;edgeStyle=none;startArrow=none;endArrow=classic;startSize=5;endSize=5;spacingTop=0;spacingBottom=0;spacingLeft=0;spacingRight=0;verticalAlign=middle;html=1;labelBackgroundColor=#ffffff;rounded=0;" edge="1" parent="67REWQIAH_ysqliAc44E-1" source="RzbE2ylmn-Bbew9sLOly-10" target="RzbE2ylmn-Bbew9sLOly-61">
          <mxGeometry relative="1" as="geometry">
            <Array as="points">
              <mxPoint x="440" y="487"/>
              <mxPoint x="400.16" y="511"/>
            </Array>
          </mxGeometry>
        </mxCell>
        <mxCell id="RzbE2ylmn-Bbew9sLOly-63" vertex="1" parent="67REWQIAH_ysqliAc44E-1">
          <mxGeometry x="123" y="809" as="geometry"/>
        </mxCell>
        <mxCell id="RzbE2ylmn-Bbew9sLOly-64" style="vsdxID=26;edgeStyle=none;startArrow=none;endArrow=classic;startSize=5;endSize=5;spacingTop=0;spacingBottom=0;spacingLeft=0;spacingRight=0;verticalAlign=middle;html=1;labelBackgroundColor=#ffffff;rounded=0;" edge="1" parent="67REWQIAH_ysqliAc44E-1" source="RzbE2ylmn-Bbew9sLOly-14" target="RzbE2ylmn-Bbew9sLOly-63">
          <mxGeometry relative="1" as="geometry">
            <Array as="points">
              <mxPoint x="80" y="831"/>
              <mxPoint x="123.53" y="809.62"/>
            </Array>
          </mxGeometry>
        </mxCell>
        <mxCell id="RzbE2ylmn-Bbew9sLOly-65" vertex="1" parent="67REWQIAH_ysqliAc44E-1">
          <mxGeometry x="212" y="389" as="geometry"/>
        </mxCell>
        <mxCell id="RzbE2ylmn-Bbew9sLOly-66" style="vsdxID=9;edgeStyle=none;startArrow=none;endArrow=classic;startSize=5;endSize=5;spacingTop=0;spacingBottom=0;spacingLeft=0;spacingRight=0;verticalAlign=middle;html=1;labelBackgroundColor=#ffffff;rounded=0;" edge="1" parent="67REWQIAH_ysqliAc44E-1" source="RzbE2ylmn-Bbew9sLOly-2" target="RzbE2ylmn-Bbew9sLOly-65">
          <mxGeometry relative="1" as="geometry">
            <Array as="points">
              <mxPoint x="200" y="365"/>
              <mxPoint x="211.84" y="389"/>
            </Array>
          </mxGeometry>
        </mxCell>
        <mxCell id="RzbE2ylmn-Bbew9sLOly-67" vertex="1" parent="67REWQIAH_ysqliAc44E-1">
          <mxGeometry x="300" y="389" as="geometry"/>
        </mxCell>
        <mxCell id="RzbE2ylmn-Bbew9sLOly-68" style="vsdxID=10;edgeStyle=none;startArrow=none;endArrow=classic;startSize=5;endSize=5;spacingTop=0;spacingBottom=0;spacingLeft=0;spacingRight=0;verticalAlign=middle;html=1;labelBackgroundColor=#ffffff;rounded=0;" edge="1" parent="67REWQIAH_ysqliAc44E-1" source="RzbE2ylmn-Bbew9sLOly-3" target="RzbE2ylmn-Bbew9sLOly-67">
          <mxGeometry relative="1" as="geometry">
            <Array as="points">
              <mxPoint x="320" y="365"/>
              <mxPoint x="299.84" y="389"/>
            </Array>
          </mxGeometry>
        </mxCell>
        <mxCell id="RzbE2ylmn-Bbew9sLOly-69" vertex="1" parent="67REWQIAH_ysqliAc44E-1">
          <mxGeometry x="400" y="389" as="geometry"/>
        </mxCell>
        <mxCell id="RzbE2ylmn-Bbew9sLOly-70" style="vsdxID=11;edgeStyle=none;startArrow=none;endArrow=classic;startSize=5;endSize=5;spacingTop=0;spacingBottom=0;spacingLeft=0;spacingRight=0;verticalAlign=middle;html=1;labelBackgroundColor=#ffffff;rounded=0;" edge="1" parent="67REWQIAH_ysqliAc44E-1" source="RzbE2ylmn-Bbew9sLOly-4" target="RzbE2ylmn-Bbew9sLOly-69">
          <mxGeometry relative="1" as="geometry">
            <Array as="points">
              <mxPoint x="440" y="365"/>
              <mxPoint x="400.16" y="389"/>
            </Array>
          </mxGeometry>
        </mxCell>
      </root>
    </mxGraphModel>
  </diagram>
</mxfile>
